<svg xmlns="http://www.w3.org/2000/svg" version="1.0" width="400mm" height="200mm" viewBox="0 0 400 200"><path fill="none" stroke="DarkBlue" stroke-width="0.1" d="M 0,40 C 8 40 20 34.98 14.98 45.02 C 9.96 55.06 30.04 55.06 25.02 45.02 C 20 34.98 32 40 40 40 C 48 40 60 34.98 54.98 45.02 C 49.96 55.06 70.04 55.06 65.02 45.02 C 60 34.98 72 40 80 40 C 88 40 100 34.98 94.98 45.02 C 89.96 55.06 110.04 55.06 105.02 45.02 C 100 34.98 112 40 120 40 C 128 40 140 34.98 134.98 45.02 C 129.96 55.06 150.04 55.06 145.02 45.02 C 140 34.98 152 40 160 40 C 168 40 180 34.98 174.98 45.02 C 169.96 55.06 190.04 55.06 185.02 45.02 C 180 34.98 192 40 200 40 C 208 40 220 34.98 214.98 45.02 C 209.96 55.06 230.04 55.06 225.02 45.02 C 220 34.98 232 40 240 40 C 248 40 260 45.02 254.98 34.98 C 249.96 24.94 270.04 24.94 265.02 34.98 C 260 45.02 272 40 280 40 C 288 40 300 34.98 294.98 45.02 C 289.96 55.06 310.04 55.06 305.02 45.02 C 300 34.98 312 40 320 40 C 328 40 340 45.02 334.98 34.98 C 329.96 24.94 350.04 24.94 345.02 34.98 C 340 45.02 352 40 360 40 C 368 40 380 45.02 374.98 34.98 C 369.96 24.94 390.04 24.94 385.02 34.98 C 380 45.02 392 40 400 40 M 0,80 C 8 80 20 85.02 14.98 74.98 C 9.96 64.94 30.04 64.94 25.02 74.98 C 20 85.02 32 80 40 80 C 48 80 60 85.02 54.98 74.98 C 49.96 64.94 70.04 64.94 65.02 74.98 C 60 85.02 72 80 80 80 C 88 80 100 85.02 94.98 74.98 C 89.96 64.94 110.04 64.94 105.02 74.98 C 100 85.02 112 80 120 80 C 128 80 140 74.98 134.98 85.02 C 129.96 95.06 150.04 95.06 145.02 85.02 C 140 74.98 152 80 160 80 C 168 80 180 74.98 174.98 85.02 C 169.96 95.06 190.04 95.06 185.02 85.02 C 180 74.98 192 80 200 80 C 208 80 220 85.02 214.98 74.98 C 209.96 64.94 230.04 64.94 225.02 74.98 C 220 85.02 232 80 240 80 C 248 80 260 74.98 254.98 85.02 C 249.96 95.06 270.04 95.06 265.02 85.02 C 260 74.98 272 80 280 80 C 288 80 300 85.02 294.98 74.98 C 289.96 64.94 310.04 64.94 305.02 74.98 C 300 85.02 312 80 320 80 C 328 80 340 74.98 334.98 85.02 C 329.96 95.06 350.04 95.06 345.02 85.02 C 340 74.98 352 80 360 80 C 368 80 380 85.02 374.98 74.98 C 369.96 64.94 390.04 64.94 385.02 74.98 C 380 85.02 392 80 400 80 M 0,120 C 8 120 20 125.02 14.98 114.98 C 9.96 104.94 30.04 104.94 25.02 114.98 C 20 125.02 32 120 40 120 C 48 120 60 125.02 54.98 114.98 C 49.96 104.94 70.04 104.94 65.02 114.98 C 60 125.02 72 120 80 120 C 88 120 100 114.98 94.98 125.02 C 89.96 135.06 110.04 135.06 105.02 125.02 C 100 114.98 112 120 120 120 C 128 120 140 125.02 134.98 114.98 C 129.96 104.94 150.04 104.94 145.02 114.98 C 140 125.02 152 120 160 120 C 168 120 180 125.02 174.98 114.98 C 169.96 104.94 190.04 104.94 185.02 114.98 C 180 125.02 192 120 200 120 C 208 120 220 125.02 214.98 114.98 C 209.96 104.94 230.04 104.94 225.02 114.98 C 220 125.02 232 120 240 120 C 248 120 260 114.98 254.98 125.02 C 249.96 135.06 270.04 135.06 265.02 125.02 C 260 114.98 272 120 280 120 C 288 120 300 114.98 294.98 125.02 C 289.96 135.06 310.04 135.06 305.02 125.02 C 300 114.98 312 120 320 120 C 328 120 340 114.98 334.98 125.02 C 329.96 135.06 350.04 135.06 345.02 125.02 C 340 114.98 352 120 360 120 C 368 120 380 125.02 374.98 114.98 C 369.96 104.94 390.04 104.94 385.02 114.98 C 380 125.02 392 120 400 120 M 0,160 C 8 160 20 154.98 14.98 165.02 C 9.96 175.06 30.04 175.06 25.02 165.02 C 20 154.98 32 160 40 160 C 48 160 60 165.02 54.98 154.98 C 49.96 144.94 70.04 144.94 65.02 154.98 C 60 165.02 72 160 80 160 C 88 160 100 154.98 94.98 165.02 C 89.96 175.06 110.04 175.06 105.02 165.02 C 100 154.98 112 160 120 160 C 128 160 140 165.02 134.98 154.98 C 129.96 144.94 150.04 144.94 145.02 154.98 C 140 165.02 152 160 160 160 C 168 160 180 154.98 174.98 165.02 C 169.96 175.06 190.04 175.06 185.02 165.02 C 180 154.98 192 160 200 160 C 208 160 220 154.98 214.98 165.02 C 209.96 175.06 230.04 175.06 225.02 165.02 C 220 154.98 232 160 240 160 C 248 160 260 154.98 254.98 165.02 C 249.96 175.06 270.04 175.06 265.02 165.02 C 260 154.98 272 160 280 160 C 288 160 300 165.02 294.98 154.98 C 289.96 144.94 310.04 144.94 305.02 154.98 C 300 165.02 312 160 320 160 C 328 160 340 154.98 334.98 165.02 C 329.96 175.06 350.04 175.06 345.02 165.02 C 340 154.98 352 160 360 160 C 368 160 380 165.02 374.98 154.98 C 369.96 144.94 390.04 144.94 385.02 154.98 C 380 165.02 392 160 400 160 "></path><path fill="none" stroke="DarkRed" stroke-width="0.1" d="M 40,0 C 40 8 34.98 20 45.02 14.98 C 55.06 9.96 55.06 30.04 45.02 25.02 C 34.98 20 40 32 40 40 C 40 48 34.98 60 45.02 54.98 C 55.06 49.96 55.06 70.04 45.02 65.02 C 34.98 60 40 72 40 80 C 40 88 45.02 100 34.98 94.98 C 24.94 89.96 24.94 110.04 34.98 105.02 C 45.02 100 40 112 40 120 C 40 128 34.98 140 45.02 134.98 C 55.06 129.96 55.06 150.04 45.02 145.02 C 34.98 140 40 152 40 160 C 40 168 45.02 180 34.98 174.98 C 24.94 169.96 24.94 190.04 34.98 185.02 C 45.02 180 40 192 40 200 M 80,0 C 80 8 74.98 20 85.02 14.98 C 95.06 9.96 95.06 30.04 85.02 25.02 C 74.98 20 80 32 80 40 C 80 48 85.02 60 74.98 54.98 C 64.94 49.96 64.94 70.04 74.98 65.02 C 85.02 60 80 72 80 80 C 80 88 74.98 100 85.02 94.98 C 95.06 89.96 95.06 110.04 85.02 105.02 C 74.98 100 80 112 80 120 C 80 128 74.98 140 85.02 134.98 C 95.06 129.96 95.06 150.04 85.02 145.02 C 74.98 140 80 152 80 160 C 80 168 85.02 180 74.98 174.98 C 64.94 169.96 64.94 190.04 74.98 185.02 C 85.02 180 80 192 80 200 M 120,0 C 120 8 114.98 20 125.02 14.98 C 135.06 9.96 135.06 30.04 125.02 25.02 C 114.98 20 120 32 120 40 C 120 48 125.02 60 114.98 54.98 C 104.94 49.96 104.94 70.04 114.98 65.02 C 125.02 60 120 72 120 80 C 120 88 114.98 100 125.02 94.98 C 135.06 89.96 135.06 110.04 125.02 105.02 C 114.98 100 120 112 120 120 C 120 128 125.02 140 114.98 134.98 C 104.94 129.96 104.94 150.04 114.98 145.02 C 125.02 140 120 152 120 160 C 120 168 125.02 180 114.98 174.98 C 104.94 169.96 104.94 190.04 114.98 185.02 C 125.02 180 120 192 120 200 M 160,0 C 160 8 165.02 20 154.98 14.98 C 144.94 9.96 144.94 30.04 154.98 25.02 C 165.02 20 160 32 160 40 C 160 48 154.98 60 165.02 54.98 C 175.06 49.96 175.06 70.04 165.02 65.02 C 154.98 60 160 72 160 80 C 160 88 165.02 100 154.98 94.98 C 144.94 89.96 144.94 110.04 154.98 105.02 C 165.02 100 160 112 160 120 C 160 128 154.98 140 165.02 134.98 C 175.06 129.96 175.06 150.04 165.02 145.02 C 154.98 140 160 152 160 160 C 160 168 154.98 180 165.02 174.98 C 175.06 169.96 175.06 190.04 165.02 185.02 C 154.98 180 160 192 160 200 M 200,0 C 200 8 194.98 20 205.02 14.98 C 215.06 9.96 215.06 30.04 205.02 25.02 C 194.98 20 200 32 200 40 C 200 48 194.98 60 205.02 54.98 C 215.06 49.96 215.06 70.04 205.02 65.02 C 194.98 60 200 72 200 80 C 200 88 194.98 100 205.02 94.98 C 215.06 89.96 215.06 110.04 205.02 105.02 C 194.98 100 200 112 200 120 C 200 128 194.98 140 205.02 134.98 C 215.06 129.96 215.06 150.04 205.02 145.02 C 194.98 140 200 152 200 160 C 200 168 205.02 180 194.98 174.98 C 184.94 169.96 184.94 190.04 194.98 185.02 C 205.02 180 200 192 200 200 M 240,0 C 240 8 234.98 20 245.02 14.98 C 255.06 9.96 255.06 30.04 245.02 25.02 C 234.98 20 240 32 240 40 C 240 48 245.02 60 234.98 54.98 C 224.94 49.96 224.94 70.04 234.98 65.02 C 245.02 60 240 72 240 80 C 240 88 234.98 100 245.02 94.98 C 255.06 89.96 255.06 110.04 245.02 105.02 C 234.98 100 240 112 240 120 C 240 128 245.02 140 234.98 134.98 C 224.94 129.96 224.94 150.04 234.98 145.02 C 245.02 140 240 152 240 160 C 240 168 234.98 180 245.02 174.98 C 255.06 169.96 255.06 190.04 245.02 185.02 C 234.98 180 240 192 240 200 M 280,0 C 280 8 285.02 20 274.98 14.98 C 264.94 9.96 264.94 30.04 274.98 25.02 C 285.02 20 280 32 280 40 C 280 48 274.98 60 285.02 54.98 C 295.06 49.96 295.06 70.04 285.02 65.02 C 274.98 60 280 72 280 80 C 280 88 285.02 100 274.98 94.98 C 264.94 89.96 264.94 110.04 274.98 105.02 C 285.02 100 280 112 280 120 C 280 128 274.98 140 285.02 134.98 C 295.06 129.96 295.06 150.04 285.02 145.02 C 274.98 140 280 152 280 160 C 280 168 285.02 180 274.98 174.98 C 264.94 169.96 264.94 190.04 274.98 185.02 C 285.02 180 280 192 280 200 M 320,0 C 320 8 314.98 20 325.02 14.98 C 335.06 9.96 335.06 30.04 325.02 25.02 C 314.98 20 320 32 320 40 C 320 48 314.98 60 325.02 54.98 C 335.06 49.96 335.06 70.04 325.02 65.02 C 314.98 60 320 72 320 80 C 320 88 325.02 100 314.98 94.98 C 304.94 89.96 304.94 110.04 314.98 105.02 C 325.02 100 320 112 320 120 C 320 128 314.98 140 325.02 134.98 C 335.06 129.96 335.06 150.04 325.02 145.02 C 314.98 140 320 152 320 160 C 320 168 314.98 180 325.02 174.98 C 335.06 169.96 335.06 190.04 325.02 185.02 C 314.98 180 320 192 320 200 M 360,0 C 360 8 354.98 20 365.02 14.98 C 375.06 9.96 375.06 30.04 365.02 25.02 C 354.98 20 360 32 360 40 C 360 48 354.98 60 365.02 54.98 C 375.06 49.96 375.06 70.04 365.02 65.02 C 354.98 60 360 72 360 80 C 360 88 354.98 100 365.02 94.98 C 375.06 89.96 375.06 110.04 365.02 105.02 C 354.98 100 360 112 360 120 C 360 128 365.02 140 354.98 134.98 C 344.94 129.96 344.94 150.04 354.98 145.02 C 365.02 140 360 152 360 160 C 360 168 354.98 180 365.02 174.98 C 375.06 169.96 375.06 190.04 365.02 185.02 C 354.98 180 360 192 360 200 "></path><path fill="none" stroke="Black" stroke-width="0.1" d="M 2 0 L 398 0 A 2 2 0 0 1 400 2 L 400 198 A 2 2 0 0 1 398 200 L 2 200 A 2 2 0 0 1 0 198 L 0 2 A 2 2 0 0 1 2 0 "></path></svg>