<svg xmlns="http://www.w3.org/2000/svg" version="1.0" width="400mm" height="200mm" viewBox="0 0 400 200"><path fill="none" stroke="DarkBlue" stroke-width="0.1" d="M 0,28.57 C 5.33 28.57 13.33 24.99 9.99 32.16 C 6.64 39.33 20.03 39.33 16.68 32.16 C 13.33 24.99 21.33 28.57 26.67 28.57 C 32 28.57 40 24.99 36.65 32.16 C 33.31 39.33 46.69 39.33 43.35 32.16 C 40 24.99 48 28.57 53.33 28.57 C 58.67 28.57 66.67 24.99 63.32 32.16 C 59.97 39.33 73.36 39.33 70.01 32.16 C 66.67 24.99 74.67 28.57 80 28.57 C 85.33 28.57 93.33 24.99 89.99 32.16 C 86.64 39.33 100.03 39.33 96.68 32.16 C 93.33 24.99 101.33 28.57 106.67 28.57 C 112 28.57 120 24.99 116.65 32.16 C 113.31 39.33 126.69 39.33 123.35 32.16 C 120 24.99 128 28.57 133.33 28.57 C 138.67 28.57 146.67 24.99 143.32 32.16 C 139.97 39.33 153.36 39.33 150.01 32.16 C 146.67 24.99 154.67 28.57 160 28.57 C 165.33 28.57 173.33 32.16 169.99 24.99 C 166.64 17.81 180.03 17.81 176.68 24.99 C 173.33 32.16 181.33 28.57 186.67 28.57 C 192 28.57 200 24.99 196.65 32.16 C 193.31 39.33 206.69 39.33 203.35 32.16 C 200 24.99 208 28.57 213.33 28.57 C 218.67 28.57 226.67 32.16 223.32 24.99 C 219.97 17.81 233.36 17.81 230.01 24.99 C 226.67 32.16 234.67 28.57 240 28.57 C 245.33 28.57 253.33 32.16 249.99 24.99 C 246.64 17.81 260.03 17.81 256.68 24.99 C 253.33 32.16 261.33 28.57 266.67 28.57 C 272 28.57 280 32.16 276.65 24.99 C 273.31 17.81 286.69 17.81 283.35 24.99 C 280 32.16 288 28.57 293.33 28.57 C 298.67 28.57 306.67 32.16 303.32 24.99 C 299.97 17.81 313.36 17.81 310.01 24.99 C 306.67 32.16 314.67 28.57 320 28.57 C 325.33 28.57 333.33 32.16 329.99 24.99 C 326.64 17.81 340.03 17.81 336.68 24.99 C 333.33 32.16 341.33 28.57 346.67 28.57 C 352 28.57 360 24.99 356.65 32.16 C 353.31 39.33 366.69 39.33 363.35 32.16 C 360 24.99 368 28.57 373.33 28.57 C 378.67 28.57 386.67 32.16 383.32 24.99 C 379.97 17.81 393.36 17.81 390.01 24.99 C 386.67 32.16 394.67 28.57 400 28.57 M 0,57.14 C 5.33 57.14 13.33 60.73 9.99 53.56 C 6.64 46.39 20.03 46.39 16.68 53.56 C 13.33 60.73 21.33 57.14 26.67 57.14 C 32 57.14 40 53.56 36.65 60.73 C 33.31 67.9 46.69 67.9 43.35 60.73 C 40 53.56 48 57.14 53.33 57.14 C 58.67 57.14 66.67 60.73 63.32 53.56 C 59.97 46.39 73.36 46.39 70.01 53.56 C 66.67 60.73 74.67 57.14 80 57.14 C 85.33 57.14 93.33 53.56 89.99 60.73 C 86.64 67.9 100.03 67.9 96.68 60.73 C 93.33 53.56 101.33 57.14 106.67 57.14 C 112 57.14 120 60.73 116.65 53.56 C 113.31 46.39 126.69 46.39 123.35 53.56 C 120 60.73 128 57.14 133.33 57.14 C 138.67 57.14 146.67 60.73 143.32 53.56 C 139.97 46.39 153.36 46.39 150.01 53.56 C 146.67 60.73 154.67 57.14 160 57.14 C 165.33 57.14 173.33 60.73 169.99 53.56 C 166.64 46.39 180.03 46.39 176.68 53.56 C 173.33 60.73 181.33 57.14 186.67 57.14 C 192 57.14 200 60.73 196.65 53.56 C 193.31 46.39 206.69 46.39 203.35 53.56 C 200 60.73 208 57.14 213.33 57.14 C 218.67 57.14 226.67 60.73 223.32 53.56 C 219.97 46.39 233.36 46.39 230.01 53.56 C 226.67 60.73 234.67 57.14 240 57.14 C 245.33 57.14 253.33 60.73 249.99 53.56 C 246.64 46.39 260.03 46.39 256.68 53.56 C 253.33 60.73 261.33 57.14 266.67 57.14 C 272 57.14 280 60.73 276.65 53.56 C 273.31 46.39 286.69 46.39 283.35 53.56 C 280 60.73 288 57.14 293.33 57.14 C 298.67 57.14 306.67 53.56 303.32 60.73 C 299.97 67.9 313.36 67.9 310.01 60.73 C 306.67 53.56 314.67 57.14 320 57.14 C 325.33 57.14 333.33 60.73 329.99 53.56 C 326.64 46.39 340.03 46.39 336.68 53.56 C 333.33 60.73 341.33 57.14 346.67 57.14 C 352 57.14 360 60.73 356.65 53.56 C 353.31 46.39 366.69 46.39 363.35 53.56 C 360 60.73 368 57.14 373.33 57.14 C 378.67 57.14 386.67 53.56 383.32 60.73 C 379.97 67.9 393.36 67.9 390.01 60.73 C 386.67 53.56 394.67 57.14 400 57.14 M 0,85.71 C 5.33 85.71 13.33 89.3 9.99 82.13 C 6.64 74.96 20.03 74.96 16.68 82.13 C 13.33 89.3 21.33 85.71 26.67 85.71 C 32 85.71 40 89.3 36.65 82.13 C 33.31 74.96 46.69 74.96 43.35 82.13 C 40 89.3 48 85.71 53.33 85.71 C 58.67 85.71 66.67 82.13 63.32 89.3 C 59.97 96.47 73.36 96.47 70.01 89.3 C 66.67 82.13 74.67 85.71 80 85.71 C 85.33 85.71 93.33 82.13 89.99 89.3 C 86.64 96.47 100.03 96.47 96.68 89.3 C 93.33 82.13 101.33 85.71 106.67 85.71 C 112 85.71 120 89.3 116.65 82.13 C 113.31 74.96 126.69 74.96 123.35 82.13 C 120 89.3 128 85.71 133.33 85.71 C 138.67 85.71 146.67 89.3 143.32 82.13 C 139.97 74.96 153.36 74.96 150.01 82.13 C 146.67 89.3 154.67 85.71 160 85.71 C 165.33 85.71 173.33 89.3 169.99 82.13 C 166.64 74.96 180.03 74.96 176.68 82.13 C 173.33 89.3 181.33 85.71 186.67 85.71 C 192 85.71 200 82.13 196.65 89.3 C 193.31 96.47 206.69 96.47 203.35 89.3 C 200 82.13 208 85.71 213.33 85.71 C 218.67 85.71 226.67 82.13 223.32 89.3 C 219.97 96.47 233.36 96.47 230.01 89.3 C 226.67 82.13 234.67 85.71 240 85.71 C 245.33 85.71 253.33 82.13 249.99 89.3 C 246.64 96.47 260.03 96.47 256.68 89.3 C 253.33 82.13 261.33 85.71 266.67 85.71 C 272 85.71 280 82.13 276.65 89.3 C 273.31 96.47 286.69 96.47 283.35 89.3 C 280 82.13 288 85.71 293.33 85.71 C 298.67 85.71 306.67 82.13 303.32 89.3 C 299.97 96.47 313.36 96.47 310.01 89.3 C 306.67 82.13 314.67 85.71 320 85.71 C 325.33 85.71 333.33 82.13 329.99 89.3 C 326.64 96.47 340.03 96.47 336.68 89.3 C 333.33 82.13 341.33 85.71 346.67 85.71 C 352 85.71 360 82.13 356.65 89.3 C 353.31 96.47 366.69 96.47 363.35 89.3 C 360 82.13 368 85.71 373.33 85.71 C 378.67 85.71 386.67 89.3 383.32 82.13 C 379.97 74.96 393.36 74.96 390.01 82.13 C 386.67 89.3 394.67 85.71 400 85.71 M 0,114.29 C 5.33 114.29 13.33 110.7 9.99 117.87 C 6.64 125.04 20.03 125.04 16.68 117.87 C 13.33 110.7 21.33 114.29 26.67 114.29 C 32 114.29 40 117.87 36.65 110.7 C 33.31 103.53 46.69 103.53 43.35 110.7 C 40 117.87 48 114.29 53.33 114.29 C 58.67 114.29 66.67 110.7 63.32 117.87 C 59.97 125.04 73.36 125.04 70.01 117.87 C 66.67 110.7 74.67 114.29 80 114.29 C 85.33 114.29 93.33 117.87 89.99 110.7 C 86.64 103.53 100.03 103.53 96.68 110.7 C 93.33 117.87 101.33 114.29 106.67 114.29 C 112 114.29 120 110.7 116.65 117.87 C 113.31 125.04 126.69 125.04 123.35 117.87 C 120 110.7 128 114.29 133.33 114.29 C 138.67 114.29 146.67 117.87 143.32 110.7 C 139.97 103.53 153.36 103.53 150.01 110.7 C 146.67 117.87 154.67 114.29 160 114.29 C 165.33 114.29 173.33 110.7 169.99 117.87 C 166.64 125.04 180.03 125.04 176.68 117.87 C 173.33 110.7 181.33 114.29 186.67 114.29 C 192 114.29 200 117.87 196.65 110.7 C 193.31 103.53 206.69 103.53 203.35 110.7 C 200 117.87 208 114.29 213.33 114.29 C 218.67 114.29 226.67 110.7 223.32 117.87 C 219.97 125.04 233.36 125.04 230.01 117.87 C 226.67 110.7 234.67 114.29 240 114.29 C 245.33 114.29 253.33 110.7 249.99 117.87 C 246.64 125.04 260.03 125.04 256.68 117.87 C 253.33 110.7 261.33 114.29 266.67 114.29 C 272 114.29 280 117.87 276.65 110.7 C 273.31 103.53 286.69 103.53 283.35 110.7 C 280 117.87 288 114.29 293.33 114.29 C 298.67 114.29 306.67 117.87 303.32 110.7 C 299.97 103.53 313.36 103.53 310.01 110.7 C 306.67 117.87 314.67 114.29 320 114.29 C 325.33 114.29 333.33 117.87 329.99 110.7 C 326.64 103.53 340.03 103.53 336.68 110.7 C 333.33 117.87 341.33 114.29 346.67 114.29 C 352 114.29 360 117.87 356.65 110.7 C 353.31 103.53 366.69 103.53 363.35 110.7 C 360 117.87 368 114.29 373.33 114.29 C 378.67 114.29 386.67 110.7 383.32 117.87 C 379.97 125.04 393.36 125.04 390.01 117.87 C 386.67 110.7 394.67 114.29 400 114.29 M 0,142.86 C 5.33 142.86 13.33 139.27 9.99 146.44 C 6.64 153.61 20.03 153.61 16.68 146.44 C 13.33 139.27 21.33 142.86 26.67 142.86 C 32 142.86 40 146.44 36.65 139.27 C 33.31 132.1 46.69 132.1 43.35 139.27 C 40 146.44 48 142.86 53.33 142.86 C 58.67 142.86 66.67 146.44 63.32 139.27 C 59.97 132.1 73.36 132.1 70.01 139.27 C 66.67 146.44 74.67 142.86 80 142.86 C 85.33 142.86 93.33 146.44 89.99 139.27 C 86.64 132.1 100.03 132.1 96.68 139.27 C 93.33 146.44 101.33 142.86 106.67 142.86 C 112 142.86 120 146.44 116.65 139.27 C 113.31 132.1 126.69 132.1 123.35 139.27 C 120 146.44 128 142.86 133.33 142.86 C 138.67 142.86 146.67 146.44 143.32 139.27 C 139.97 132.1 153.36 132.1 150.01 139.27 C 146.67 146.44 154.67 142.86 160 142.86 C 165.33 142.86 173.33 146.44 169.99 139.27 C 166.64 132.1 180.03 132.1 176.68 139.27 C 173.33 146.44 181.33 142.86 186.67 142.86 C 192 142.86 200 146.44 196.65 139.27 C 193.31 132.1 206.69 132.1 203.35 139.27 C 200 146.44 208 142.86 213.33 142.86 C 218.67 142.86 226.67 146.44 223.32 139.27 C 219.97 132.1 233.36 132.1 230.01 139.27 C 226.67 146.44 234.67 142.86 240 142.86 C 245.33 142.86 253.33 146.44 249.99 139.27 C 246.64 132.1 260.03 132.1 256.68 139.27 C 253.33 146.44 261.33 142.86 266.67 142.86 C 272 142.86 280 146.44 276.65 139.27 C 273.31 132.1 286.69 132.1 283.35 139.27 C 280 146.44 288 142.86 293.33 142.86 C 298.67 142.86 306.67 139.27 303.32 146.44 C 299.97 153.61 313.36 153.61 310.01 146.44 C 306.67 139.27 314.67 142.86 320 142.86 C 325.33 142.86 333.33 146.44 329.99 139.27 C 326.64 132.1 340.03 132.1 336.68 139.27 C 333.33 146.44 341.33 142.86 346.67 142.86 C 352 142.86 360 139.27 356.65 146.44 C 353.31 153.61 366.69 153.61 363.35 146.44 C 360 139.27 368 142.86 373.33 142.86 C 378.67 142.86 386.67 146.44 383.32 139.27 C 379.97 132.1 393.36 132.1 390.01 139.27 C 386.67 146.44 394.67 142.86 400 142.86 M 0,171.43 C 5.33 171.43 13.33 175.01 9.99 167.84 C 6.64 160.67 20.03 160.67 16.68 167.84 C 13.33 175.01 21.33 171.43 26.67 171.43 C 32 171.43 40 175.01 36.65 167.84 C 33.31 160.67 46.69 160.67 43.35 167.84 C 40 175.01 48 171.43 53.33 171.43 C 58.67 171.43 66.67 167.84 63.32 175.01 C 59.97 182.19 73.36 182.19 70.01 175.01 C 66.67 167.84 74.67 171.43 80 171.43 C 85.33 171.43 93.33 175.01 89.99 167.84 C 86.64 160.67 100.03 160.67 96.68 167.84 C 93.33 175.01 101.33 171.43 106.67 171.43 C 112 171.43 120 167.84 116.65 175.01 C 113.31 182.19 126.69 182.19 123.35 175.01 C 120 167.84 128 171.43 133.33 171.43 C 138.67 171.43 146.67 175.01 143.32 167.84 C 139.97 160.67 153.36 160.67 150.01 167.84 C 146.67 175.01 154.67 171.43 160 171.43 C 165.33 171.43 173.33 167.84 169.99 175.01 C 166.64 182.19 180.03 182.19 176.68 175.01 C 173.33 167.84 181.33 171.43 186.67 171.43 C 192 171.43 200 167.84 196.65 175.01 C 193.31 182.19 206.69 182.19 203.35 175.01 C 200 167.84 208 171.43 213.33 171.43 C 218.67 171.43 226.67 167.84 223.32 175.01 C 219.97 182.19 233.36 182.19 230.01 175.01 C 226.67 167.84 234.67 171.43 240 171.43 C 245.33 171.43 253.33 175.01 249.99 167.84 C 246.64 160.67 260.03 160.67 256.68 167.84 C 253.33 175.01 261.33 171.43 266.67 171.43 C 272 171.43 280 175.01 276.65 167.84 C 273.31 160.67 286.69 160.67 283.35 167.84 C 280 175.01 288 171.43 293.33 171.43 C 298.67 171.43 306.67 175.01 303.32 167.84 C 299.97 160.67 313.36 160.67 310.01 167.84 C 306.67 175.01 314.67 171.43 320 171.43 C 325.33 171.43 333.33 167.84 329.99 175.01 C 326.64 182.19 340.03 182.19 336.68 175.01 C 333.33 167.84 341.33 171.43 346.67 171.43 C 352 171.43 360 167.84 356.65 175.01 C 353.31 182.19 366.69 182.19 363.35 175.01 C 360 167.84 368 171.43 373.33 171.43 C 378.67 171.43 386.67 167.84 383.32 175.01 C 379.97 182.19 393.36 182.19 390.01 175.01 C 386.67 167.84 394.67 171.43 400 171.43 "></path><path fill="none" stroke="DarkRed" stroke-width="0.1" d="M 26.67,0 C 26.67 5.71 23.32 14.29 30.01 10.7 C 36.71 7.11 36.71 21.46 30.01 17.87 C 23.32 14.29 26.67 22.86 26.67 28.57 C 26.67 34.29 30.01 42.86 23.32 39.27 C 16.63 35.69 16.63 50.03 23.32 46.44 C 30.01 42.86 26.67 51.43 26.67 57.14 C 26.67 62.86 30.01 71.43 23.32 67.84 C 16.63 64.26 16.63 78.6 23.32 75.01 C 30.01 71.43 26.67 80 26.67 85.71 C 26.67 91.43 23.32 100 30.01 96.41 C 36.71 92.83 36.71 107.17 30.01 103.59 C 23.32 100 26.67 108.57 26.67 114.29 C 26.67 120 30.01 128.57 23.32 124.99 C 16.63 121.4 16.63 135.74 23.32 132.16 C 30.01 128.57 26.67 137.14 26.67 142.86 C 26.67 148.57 30.01 157.14 23.32 153.56 C 16.63 149.97 16.63 164.31 23.32 160.73 C 30.01 157.14 26.67 165.71 26.67 171.43 C 26.67 177.14 30.01 185.71 23.32 182.13 C 16.63 178.54 16.63 192.89 23.32 189.3 C 30.01 185.71 26.67 194.29 26.67 200 M 53.33,0 C 53.33 5.71 56.68 14.29 49.99 10.7 C 43.29 7.11 43.29 21.46 49.99 17.87 C 56.68 14.29 53.33 22.86 53.33 28.57 C 53.33 34.29 49.99 42.86 56.68 39.27 C 63.37 35.69 63.37 50.03 56.68 46.44 C 49.99 42.86 53.33 51.43 53.33 57.14 C 53.33 62.86 56.68 71.43 49.99 67.84 C 43.29 64.26 43.29 78.6 49.99 75.01 C 56.68 71.43 53.33 80 53.33 85.71 C 53.33 91.43 49.99 100 56.68 96.41 C 63.37 92.83 63.37 107.17 56.68 103.59 C 49.99 100 53.33 108.57 53.33 114.29 C 53.33 120 49.99 128.57 56.68 124.99 C 63.37 121.4 63.37 135.74 56.68 132.16 C 49.99 128.57 53.33 137.14 53.33 142.86 C 53.33 148.57 56.68 157.14 49.99 153.56 C 43.29 149.97 43.29 164.31 49.99 160.73 C 56.68 157.14 53.33 165.71 53.33 171.43 C 53.33 177.14 49.99 185.71 56.68 182.13 C 63.37 178.54 63.37 192.89 56.68 189.3 C 49.99 185.71 53.33 194.29 53.33 200 M 80,0 C 80 5.71 83.35 14.29 76.65 10.7 C 69.96 7.11 69.96 21.46 76.65 17.87 C 83.35 14.29 80 22.86 80 28.57 C 80 34.29 83.35 42.86 76.65 39.27 C 69.96 35.69 69.96 50.03 76.65 46.44 C 83.35 42.86 80 51.43 80 57.14 C 80 62.86 76.65 71.43 83.35 67.84 C 90.04 64.26 90.04 78.6 83.35 75.01 C 76.65 71.43 80 80 80 85.71 C 80 91.43 83.35 100 76.65 96.41 C 69.96 92.83 69.96 107.17 76.65 103.59 C 83.35 100 80 108.57 80 114.29 C 80 120 76.65 128.57 83.35 124.99 C 90.04 121.4 90.04 135.74 83.35 132.16 C 76.65 128.57 80 137.14 80 142.86 C 80 148.57 83.35 157.14 76.65 153.56 C 69.96 149.97 69.96 164.31 76.65 160.73 C 83.35 157.14 80 165.71 80 171.43 C 80 177.14 76.65 185.71 83.35 182.13 C 90.04 178.54 90.04 192.89 83.35 189.3 C 76.65 185.71 80 194.29 80 200 M 106.67,0 C 106.67 5.71 110.01 14.29 103.32 10.7 C 96.63 7.11 96.63 21.46 103.32 17.87 C 110.01 14.29 106.67 22.86 106.67 28.57 C 106.67 34.29 103.32 42.86 110.01 39.27 C 116.71 35.69 116.71 50.03 110.01 46.44 C 103.32 42.86 106.67 51.43 106.67 57.14 C 106.67 62.86 103.32 71.43 110.01 67.84 C 116.71 64.26 116.71 78.6 110.01 75.01 C 103.32 71.43 106.67 80 106.67 85.71 C 106.67 91.43 110.01 100 103.32 96.41 C 96.63 92.83 96.63 107.17 103.32 103.59 C 110.01 100 106.67 108.57 106.67 114.29 C 106.67 120 110.01 128.57 103.32 124.99 C 96.63 121.4 96.63 135.74 103.32 132.16 C 110.01 128.57 106.67 137.14 106.67 142.86 C 106.67 148.57 110.01 157.14 103.32 153.56 C 96.63 149.97 96.63 164.31 103.32 160.73 C 110.01 157.14 106.67 165.71 106.67 171.43 C 106.67 177.14 103.32 185.71 110.01 182.13 C 116.71 178.54 116.71 192.89 110.01 189.3 C 103.32 185.71 106.67 194.29 106.67 200 M 133.33,0 C 133.33 5.71 136.68 14.29 129.99 10.7 C 123.29 7.11 123.29 21.46 129.99 17.87 C 136.68 14.29 133.33 22.86 133.33 28.57 C 133.33 34.29 129.99 42.86 136.68 39.27 C 143.37 35.69 143.37 50.03 136.68 46.44 C 129.99 42.86 133.33 51.43 133.33 57.14 C 133.33 62.86 129.99 71.43 136.68 67.84 C 143.37 64.26 143.37 78.6 136.68 75.01 C 129.99 71.43 133.33 80 133.33 85.71 C 133.33 91.43 136.68 100 129.99 96.41 C 123.29 92.83 123.29 107.17 129.99 103.59 C 136.68 100 133.33 108.57 133.33 114.29 C 133.33 120 129.99 128.57 136.68 124.99 C 143.37 121.4 143.37 135.74 136.68 132.16 C 129.99 128.57 133.33 137.14 133.33 142.86 C 133.33 148.57 136.68 157.14 129.99 153.56 C 123.29 149.97 123.29 164.31 129.99 160.73 C 136.68 157.14 133.33 165.71 133.33 171.43 C 133.33 177.14 136.68 185.71 129.99 182.13 C 123.29 178.54 123.29 192.89 129.99 189.3 C 136.68 185.71 133.33 194.29 133.33 200 M 160,0 C 160 5.71 156.65 14.29 163.35 10.7 C 170.04 7.11 170.04 21.46 163.35 17.87 C 156.65 14.29 160 22.86 160 28.57 C 160 34.29 163.35 42.86 156.65 39.27 C 149.96 35.69 149.96 50.03 156.65 46.44 C 163.35 42.86 160 51.43 160 57.14 C 160 62.86 156.65 71.43 163.35 67.84 C 170.04 64.26 170.04 78.6 163.35 75.01 C 156.65 71.43 160 80 160 85.71 C 160 91.43 156.65 100 163.35 96.41 C 170.04 92.83 170.04 107.17 163.35 103.59 C 156.65 100 160 108.57 160 114.29 C 160 120 156.65 128.57 163.35 124.99 C 170.04 121.4 170.04 135.74 163.35 132.16 C 156.65 128.57 160 137.14 160 142.86 C 160 148.57 156.65 157.14 163.35 153.56 C 170.04 149.97 170.04 164.31 163.35 160.73 C 156.65 157.14 160 165.71 160 171.43 C 160 177.14 156.65 185.71 163.35 182.13 C 170.04 178.54 170.04 192.89 163.35 189.3 C 156.65 185.71 160 194.29 160 200 M 186.67,0 C 186.67 5.71 183.32 14.29 190.01 10.7 C 196.71 7.11 196.71 21.46 190.01 17.87 C 183.32 14.29 186.67 22.86 186.67 28.57 C 186.67 34.29 190.01 42.86 183.32 39.27 C 176.63 35.69 176.63 50.03 183.32 46.44 C 190.01 42.86 186.67 51.43 186.67 57.14 C 186.67 62.86 183.32 71.43 190.01 67.84 C 196.71 64.26 196.71 78.6 190.01 75.01 C 183.32 71.43 186.67 80 186.67 85.71 C 186.67 91.43 183.32 100 190.01 96.41 C 196.71 92.83 196.71 107.17 190.01 103.59 C 183.32 100 186.67 108.57 186.67 114.29 C 186.67 120 190.01 128.57 183.32 124.99 C 176.63 121.4 176.63 135.74 183.32 132.16 C 190.01 128.57 186.67 137.14 186.67 142.86 C 186.67 148.57 183.32 157.14 190.01 153.56 C 196.71 149.97 196.71 164.31 190.01 160.73 C 183.32 157.14 186.67 165.71 186.67 171.43 C 186.67 177.14 183.32 185.71 190.01 182.13 C 196.71 178.54 196.71 192.89 190.01 189.3 C 183.32 185.71 186.67 194.29 186.67 200 M 213.33,0 C 213.33 5.71 216.68 14.29 209.99 10.7 C 203.29 7.11 203.29 21.46 209.99 17.87 C 216.68 14.29 213.33 22.86 213.33 28.57 C 213.33 34.29 216.68 42.86 209.99 39.27 C 203.29 35.69 203.29 50.03 209.99 46.44 C 216.68 42.86 213.33 51.43 213.33 57.14 C 213.33 62.86 209.99 71.43 216.68 67.84 C 223.37 64.26 223.37 78.6 216.68 75.01 C 209.99 71.43 213.33 80 213.33 85.71 C 213.33 91.43 216.68 100 209.99 96.41 C 203.29 92.83 203.29 107.17 209.99 103.59 C 216.68 100 213.33 108.57 213.33 114.29 C 213.33 120 216.68 128.57 209.99 124.99 C 203.29 121.4 203.29 135.74 209.99 132.16 C 216.68 128.57 213.33 137.14 213.33 142.86 C 213.33 148.57 216.68 157.14 209.99 153.56 C 203.29 149.97 203.29 164.31 209.99 160.73 C 216.68 157.14 213.33 165.71 213.33 171.43 C 213.33 177.14 216.68 185.71 209.99 182.13 C 203.29 178.54 203.29 192.89 209.99 189.3 C 216.68 185.71 213.33 194.29 213.33 200 M 240,0 C 240 5.71 243.35 14.29 236.65 10.7 C 229.96 7.11 229.96 21.46 236.65 17.87 C 243.35 14.29 240 22.86 240 28.57 C 240 34.29 236.65 42.86 243.35 39.27 C 250.04 35.69 250.04 50.03 243.35 46.44 C 236.65 42.86 240 51.43 240 57.14 C 240 62.86 243.35 71.43 236.65 67.84 C 229.96 64.26 229.96 78.6 236.65 75.01 C 243.35 71.43 240 80 240 85.71 C 240 91.43 243.35 100 236.65 96.41 C 229.96 92.83 229.96 107.17 236.65 103.59 C 243.35 100 240 108.57 240 114.29 C 240 120 243.35 128.57 236.65 124.99 C 229.96 121.4 229.96 135.74 236.65 132.16 C 243.35 128.57 240 137.14 240 142.86 C 240 148.57 243.35 157.14 236.65 153.56 C 229.96 149.97 229.96 164.31 236.65 160.73 C 243.35 157.14 240 165.71 240 171.43 C 240 177.14 243.35 185.71 236.65 182.13 C 229.96 178.54 229.96 192.89 236.65 189.3 C 243.35 185.71 240 194.29 240 200 M 266.67,0 C 266.67 5.71 270.01 14.29 263.32 10.7 C 256.63 7.11 256.63 21.46 263.32 17.87 C 270.01 14.29 266.67 22.86 266.67 28.57 C 266.67 34.29 263.32 42.86 270.01 39.27 C 276.71 35.69 276.71 50.03 270.01 46.44 C 263.32 42.86 266.67 51.43 266.67 57.14 C 266.67 62.86 270.01 71.43 263.32 67.84 C 256.63 64.26 256.63 78.6 263.32 75.01 C 270.01 71.43 266.67 80 266.67 85.71 C 266.67 91.43 263.32 100 270.01 96.41 C 276.71 92.83 276.71 107.17 270.01 103.59 C 263.32 100 266.67 108.57 266.67 114.29 C 266.67 120 263.32 128.57 270.01 124.99 C 276.71 121.4 276.71 135.74 270.01 132.16 C 263.32 128.57 266.67 137.14 266.67 142.86 C 266.67 148.57 263.32 157.14 270.01 153.56 C 276.71 149.97 276.71 164.31 270.01 160.73 C 263.32 157.14 266.67 165.71 266.67 171.43 C 266.67 177.14 270.01 185.71 263.32 182.13 C 256.63 178.54 256.63 192.89 263.32 189.3 C 270.01 185.71 266.67 194.29 266.67 200 M 293.33,0 C 293.33 5.71 289.99 14.29 296.68 10.7 C 303.37 7.11 303.37 21.46 296.68 17.87 C 289.99 14.29 293.33 22.86 293.33 28.57 C 293.33 34.29 289.99 42.86 296.68 39.27 C 303.37 35.69 303.37 50.03 296.68 46.44 C 289.99 42.86 293.33 51.43 293.33 57.14 C 293.33 62.86 289.99 71.43 296.68 67.84 C 303.37 64.26 303.37 78.6 296.68 75.01 C 289.99 71.43 293.33 80 293.33 85.71 C 293.33 91.43 296.68 100 289.99 96.41 C 283.29 92.83 283.29 107.17 289.99 103.59 C 296.68 100 293.33 108.57 293.33 114.29 C 293.33 120 296.68 128.57 289.99 124.99 C 283.29 121.4 283.29 135.74 289.99 132.16 C 296.68 128.57 293.33 137.14 293.33 142.86 C 293.33 148.57 296.68 157.14 289.99 153.56 C 283.29 149.97 283.29 164.31 289.99 160.73 C 296.68 157.14 293.33 165.71 293.33 171.43 C 293.33 177.14 296.68 185.71 289.99 182.13 C 283.29 178.54 283.29 192.89 289.99 189.3 C 296.68 185.71 293.33 194.29 293.33 200 M 320,0 C 320 5.71 323.35 14.29 316.65 10.7 C 309.96 7.11 309.96 21.46 316.65 17.87 C 323.35 14.29 320 22.86 320 28.57 C 320 34.29 316.65 42.86 323.35 39.27 C 330.04 35.69 330.04 50.03 323.35 46.44 C 316.65 42.86 320 51.43 320 57.14 C 320 62.86 316.65 71.43 323.35 67.84 C 330.04 64.26 330.04 78.6 323.35 75.01 C 316.65 71.43 320 80 320 85.71 C 320 91.43 316.65 100 323.35 96.41 C 330.04 92.83 330.04 107.17 323.35 103.59 C 316.65 100 320 108.57 320 114.29 C 320 120 316.65 128.57 323.35 124.99 C 330.04 121.4 330.04 135.74 323.35 132.16 C 316.65 128.57 320 137.14 320 142.86 C 320 148.57 316.65 157.14 323.35 153.56 C 330.04 149.97 330.04 164.31 323.35 160.73 C 316.65 157.14 320 165.71 320 171.43 C 320 177.14 323.35 185.71 316.65 182.13 C 309.96 178.54 309.96 192.89 316.65 189.3 C 323.35 185.71 320 194.29 320 200 M 346.67,0 C 346.67 5.71 343.32 14.29 350.01 10.7 C 356.71 7.11 356.71 21.46 350.01 17.87 C 343.32 14.29 346.67 22.86 346.67 28.57 C 346.67 34.29 350.01 42.86 343.32 39.27 C 336.63 35.69 336.63 50.03 343.32 46.44 C 350.01 42.86 346.67 51.43 346.67 57.14 C 346.67 62.86 343.32 71.43 350.01 67.84 C 356.71 64.26 356.71 78.6 350.01 75.01 C 343.32 71.43 346.67 80 346.67 85.71 C 346.67 91.43 343.32 100 350.01 96.41 C 356.71 92.83 356.71 107.17 350.01 103.59 C 343.32 100 346.67 108.57 346.67 114.29 C 346.67 120 343.32 128.57 350.01 124.99 C 356.71 121.4 356.71 135.74 350.01 132.16 C 343.32 128.57 346.67 137.14 346.67 142.86 C 346.67 148.57 343.32 157.14 350.01 153.56 C 356.71 149.97 356.71 164.31 350.01 160.73 C 343.32 157.14 346.67 165.71 346.67 171.43 C 346.67 177.14 343.32 185.71 350.01 182.13 C 356.71 178.54 356.71 192.89 350.01 189.3 C 343.32 185.71 346.67 194.29 346.67 200 M 373.33,0 C 373.33 5.71 376.68 14.29 369.99 10.7 C 363.29 7.11 363.29 21.46 369.99 17.87 C 376.68 14.29 373.33 22.86 373.33 28.57 C 373.33 34.29 369.99 42.86 376.68 39.27 C 383.37 35.69 383.37 50.03 376.68 46.44 C 369.99 42.86 373.33 51.43 373.33 57.14 C 373.33 62.86 376.68 71.43 369.99 67.84 C 363.29 64.26 363.29 78.6 369.99 75.01 C 376.68 71.43 373.33 80 373.33 85.71 C 373.33 91.43 369.99 100 376.68 96.41 C 383.37 92.83 383.37 107.17 376.68 103.59 C 369.99 100 373.33 108.57 373.33 114.29 C 373.33 120 376.68 128.57 369.99 124.99 C 363.29 121.4 363.29 135.74 369.99 132.16 C 376.68 128.57 373.33 137.14 373.33 142.86 C 373.33 148.57 369.99 157.14 376.68 153.56 C 383.37 149.97 383.37 164.31 376.68 160.73 C 369.99 157.14 373.33 165.71 373.33 171.43 C 373.33 177.14 369.99 185.71 376.68 182.13 C 383.37 178.54 383.37 192.89 376.68 189.3 C 369.99 185.71 373.33 194.29 373.33 200 "></path><path fill="none" stroke="Black" stroke-width="0.1" d="M 2 0 L 398 0 A 2 2 0 0 1 400 2 L 400 198 A 2 2 0 0 1 398 200 L 2 200 A 2 2 0 0 1 0 198 L 0 2 A 2 2 0 0 1 2 0 "></path></svg>