<svg xmlns="http://www.w3.org/2000/svg" version="1.0" width="400mm" height="200mm" viewBox="0 0 400 200"><path fill="none" stroke="DarkBlue" stroke-width="0.1" d="M 0,20 C 4 19.96 11.34 18.68 8.76 22.68 C 6.18 26.68 14.18 26.68 12.76 22.68 C 11.34 18.68 16 19.31 20 20 C 24 20.69 29.49 21.67 27.82 17.67 C 26.16 13.67 34.16 13.67 31.82 17.67 C 29.49 21.67 36 19.33 40 20 C 44 20.67 49.32 21.36 47.79 17.36 C 46.26 13.36 54.26 13.36 51.79 17.36 C 49.32 21.36 56 19.21 60 20 C 64 20.79 70.11 18.5 67.63 22.5 C 65.14 26.5 73.14 26.5 71.63 22.5 C 70.11 18.5 76 19.8 80 20 C 84 20.2 90.57 18.41 88.68 22.41 C 86.8 26.41 94.8 26.41 92.68 22.41 C 90.57 18.41 96 20.62 100 20 C 104 19.38 110.74 22.64 108.06 18.64 C 105.37 14.64 113.37 14.64 112.06 18.64 C 110.74 22.64 116 20.71 120 20 C 124 19.29 130.24 22.75 128.51 18.75 C 126.77 14.75 134.77 14.75 132.51 18.75 C 130.24 22.75 136 19.93 140 20 C 144 20.07 150.26 21.28 147.72 17.28 C 145.18 13.28 153.18 13.28 151.72 17.28 C 150.26 21.28 156 20.05 160 20 C 164 19.95 169.1 22.56 167.66 18.56 C 166.23 14.56 174.23 14.56 171.66 18.56 C 169.1 22.56 176 20.22 180 20 C 184 19.78 189.97 21.36 188.57 17.36 C 187.16 13.36 195.16 13.36 192.57 17.36 C 189.97 21.36 196 19.84 200 20 C 204 20.16 210.61 22.48 208.6 18.48 C 206.59 14.48 214.59 14.48 212.6 18.48 C 210.61 22.48 216 19.82 220 20 C 224 20.18 229.94 17.74 228.55 21.74 C 227.15 25.74 235.15 25.74 232.55 21.74 C 229.94 17.74 236 19.55 240 20 C 244 20.45 249.82 22.71 247.94 18.71 C 246.07 14.71 254.07 14.71 251.94 18.71 C 249.82 22.71 256 20.17 260 20 C 264 19.83 270.15 18.69 267.59 22.69 C 265.02 26.69 273.02 26.69 271.59 22.69 C 270.15 18.69 276 20.54 280 20 C 284 19.46 289.74 22.18 287.73 18.18 C 285.72 14.18 293.72 14.18 291.73 18.18 C 289.74 22.18 296 20.3 300 20 C 304 19.7 310.49 18.7 307.81 22.7 C 305.13 26.7 313.13 26.7 311.81 22.7 C 310.49 18.7 316 19.61 320 20 C 324 20.39 329.57 22.07 327.76 18.07 C 325.94 14.07 333.94 14.07 331.76 18.07 C 329.57 22.07 336 20.2 340 20 C 344 19.8 349.56 18.64 347.65 22.64 C 345.75 26.64 353.75 26.64 351.65 22.64 C 349.56 18.64 356 20.74 360 20 C 364 19.26 369 22.42 367.6 18.42 C 366.2 14.42 374.2 14.42 371.6 18.42 C 369 22.42 376 20.03 380 20 C 384 19.97 391.34 22.35 388.56 18.35 C 385.77 14.35 393.77 14.35 392.56 18.35 C 391.34 22.35 396 20.53 400 20 M 0,40 C 4 39.21 9.05 41.48 7.21 37.48 C 5.36 33.48 13.36 33.48 11.21 37.48 C 9.05 41.48 16 39.86 20 40 C 24 40.14 29.93 38.56 28.22 42.56 C 26.51 46.56 34.51 46.56 32.22 42.56 C 29.93 38.56 36 39.26 40 40 C 44 40.74 49.13 42.3 47.49 38.3 C 45.86 34.3 53.86 34.3 51.49 38.3 C 49.13 42.3 56 40.36 60 40 C 64 39.64 71.41 38.4 68.66 42.4 C 65.92 46.4 73.92 46.4 72.66 42.4 C 71.41 38.4 76 40.34 80 40 C 84 39.66 89.24 37.69 87.86 41.69 C 86.48 45.69 94.48 45.69 91.86 41.69 C 89.24 37.69 96 39.66 100 40 C 104 40.34 109.94 42.68 108.29 38.68 C 106.65 34.68 114.65 34.68 112.29 38.68 C 109.94 42.68 116 39.43 120 40 C 124 40.57 129.55 37.93 127.5 41.93 C 125.45 45.93 133.45 45.93 131.5 41.93 C 129.55 37.93 136 39.53 140 40 C 144 40.47 151.11 37.52 148.5 41.52 C 145.89 45.52 153.89 45.52 152.5 41.52 C 151.11 37.52 156 39.79 160 40 C 164 40.21 169.81 42.05 167.96 38.05 C 166.12 34.05 174.12 34.05 171.96 38.05 C 169.81 42.05 176 40.47 180 40 C 184 39.53 190.21 37.78 187.82 41.78 C 185.43 45.78 193.43 45.78 191.82 41.78 C 190.21 37.78 196 40.35 200 40 C 204 39.65 209.72 38.25 208.21 42.25 C 206.71 46.25 214.71 46.25 212.21 42.25 C 209.72 38.25 216 39.88 220 40 C 224 40.12 230.57 37.69 228.18 41.69 C 225.78 45.69 233.78 45.69 232.18 41.69 C 230.57 37.69 236 40.59 240 40 C 244 39.41 250.06 37.57 248.71 41.57 C 247.35 45.57 255.35 45.57 252.71 41.57 C 250.06 37.57 256 40.07 260 40 C 264 39.93 269.65 42.59 268.2 38.59 C 266.75 34.59 274.75 34.59 272.2 38.59 C 269.65 42.59 276 40.79 280 40 C 284 39.21 289.9 38.31 287.63 42.31 C 285.35 46.31 293.35 46.31 291.63 42.31 C 289.9 38.31 296 40.08 300 40 C 304 39.92 310.06 42.69 308.47 38.69 C 306.88 34.69 314.88 34.69 312.47 38.69 C 310.06 42.69 316 40.48 320 40 C 324 39.52 329.49 37.34 327.75 41.34 C 326.01 45.34 334.01 45.34 331.75 41.34 C 329.49 37.34 336 40.44 340 40 C 344 39.56 350.24 41.68 348.7 37.68 C 347.17 33.68 355.17 33.68 352.7 37.68 C 350.24 41.68 356 39.23 360 40 C 364 40.77 370.07 38.25 367.3 42.25 C 364.54 46.25 372.54 46.25 371.3 42.25 C 370.07 38.25 376 40.51 380 40 C 384 39.49 391.4 38.4 388.78 42.4 C 386.16 46.4 394.16 46.4 392.78 42.4 C 391.4 38.4 396 39.36 400 40 M 0,60 C 4 59.52 10.58 57.34 8.08 61.34 C 5.58 65.34 13.58 65.34 12.08 61.34 C 10.58 57.34 16 59.66 20 60 C 24 60.34 31.21 57.9 28.62 61.9 C 26.03 65.9 34.03 65.9 32.62 61.9 C 31.21 57.9 36 60.09 40 60 C 44 59.91 49.54 58.35 48.21 62.35 C 46.88 66.35 54.88 66.35 52.21 62.35 C 49.54 58.35 56 60.07 60 60 C 64 59.93 70.93 57.56 68.69 61.56 C 66.45 65.56 74.45 65.56 72.69 61.56 C 70.93 57.56 76 60.21 80 60 C 84 59.79 90.34 62.75 88.26 58.75 C 86.17 54.75 94.17 54.75 92.26 58.75 C 90.34 62.75 96 60.21 100 60 C 104 59.79 111.3 62.05 108.63 58.05 C 105.96 54.05 113.96 54.05 112.63 58.05 C 111.3 62.05 116 60.04 120 60 C 124 59.96 129.77 57.69 127.42 61.69 C 125.06 65.69 133.06 65.69 131.42 61.69 C 129.77 57.69 136 59.72 140 60 C 144 60.28 150.23 62.32 148.65 58.32 C 147.06 54.32 155.06 54.32 152.65 58.32 C 150.23 62.32 156 60.37 160 60 C 164 59.63 169.32 61.26 167.66 57.26 C 166.01 53.26 174.01 53.26 171.66 57.26 C 169.32 61.26 176 59.66 180 60 C 184 60.34 189.9 57.47 188.31 61.47 C 186.73 65.47 194.73 65.47 192.31 61.47 C 189.9 57.47 196 59.42 200 60 C 204 60.58 210.23 58.66 207.51 62.66 C 204.79 66.66 212.79 66.66 211.51 62.66 C 210.23 58.66 216 60.34 220 60 C 224 59.66 231.03 61.23 228.6 57.23 C 226.17 53.23 234.17 53.23 232.6 57.23 C 231.03 61.23 236 59.72 240 60 C 244 60.28 248.89 58.17 247.56 62.17 C 246.23 66.17 254.23 66.17 251.56 62.17 C 248.89 58.17 256 59.44 260 60 C 264 60.56 270.01 57.82 267.67 61.82 C 265.32 65.82 273.32 65.82 271.67 61.82 C 270.01 57.82 276 60.79 280 60 C 284 59.21 290.37 58.61 288.3 62.61 C 286.23 66.61 294.23 66.61 292.3 62.61 C 290.37 58.61 296 60.09 300 60 C 304 59.91 310.72 57.42 308.44 61.42 C 306.15 65.42 314.15 65.42 312.44 61.42 C 310.72 57.42 316 60.71 320 60 C 324 59.29 329.89 58.21 328.2 62.21 C 326.51 66.21 334.51 66.21 332.2 62.21 C 329.89 58.21 336 60.68 340 60 C 344 59.32 351.25 57.78 348.52 61.78 C 345.78 65.78 353.78 65.78 352.52 61.78 C 351.25 57.78 356 60.62 360 60 C 364 59.38 369.45 57.89 368.18 61.89 C 366.91 65.89 374.91 65.89 372.18 61.89 C 369.45 57.89 376 60.74 380 60 C 384 59.26 389.29 57.93 387.72 61.93 C 386.14 65.93 394.14 65.93 391.72 61.93 C 389.29 57.93 396 60.47 400 60 M 0,80 C 4 80.58 10.37 82.61 8.35 78.61 C 6.32 74.61 14.32 74.61 12.35 78.61 C 10.37 82.61 16 79.95 20 80 C 24 80.05 30.74 77.21 28.71 81.21 C 26.67 85.21 34.67 85.21 32.71 81.21 C 30.74 77.21 36 80.29 40 80 C 44 79.71 48.95 82.09 47.55 78.09 C 46.16 74.09 54.16 74.09 51.55 78.09 C 48.95 82.09 56 80.37 60 80 C 64 79.63 69.14 82 67.31 78 C 65.48 74 73.48 74 71.31 78 C 69.14 82 76 80.71 80 80 C 84 79.29 89.14 77.2 87.93 81.2 C 86.71 85.2 94.71 85.2 91.93 81.2 C 89.14 77.2 96 79.22 100 80 C 104 80.78 109.18 81.39 107.58 77.39 C 105.98 73.39 113.98 73.39 111.58 77.39 C 109.18 81.39 116 80.58 120 80 C 124 79.42 130 82.32 127.43 78.32 C 124.87 74.32 132.87 74.32 131.43 78.32 C 130 82.32 136 80.56 140 80 C 144 79.44 149.69 78.62 148.34 82.62 C 146.99 86.62 154.99 86.62 152.34 82.62 C 149.69 78.62 156 80.59 160 80 C 164 79.41 171.17 81.84 168.51 77.84 C 165.86 73.84 173.86 73.84 172.51 77.84 C 171.17 81.84 176 80.09 180 80 C 184 79.91 190.82 82.61 188.45 78.61 C 186.08 74.61 194.08 74.61 192.45 78.61 C 190.82 82.61 196 80.17 200 80 C 204 79.83 210.7 78.1 208.71 82.1 C 206.72 86.1 214.72 86.1 212.71 82.1 C 210.7 78.1 216 79.53 220 80 C 224 80.47 231.15 78.7 228.62 82.7 C 226.09 86.7 234.09 86.7 232.62 82.7 C 231.15 78.7 236 80.74 240 80 C 244 79.26 249.83 81.59 247.72 77.59 C 245.6 73.59 253.6 73.59 251.72 77.59 C 249.83 81.59 256 79.64 260 80 C 264 80.36 270.46 81.92 268.48 77.92 C 266.51 73.92 274.51 73.92 272.48 77.92 C 270.46 81.92 276 80.56 280 80 C 284 79.44 289.84 82.35 287.45 78.35 C 285.07 74.35 293.07 74.35 291.45 78.35 C 289.84 82.35 296 80.27 300 80 C 304 79.73 309.92 78.56 308.01 82.56 C 306.1 86.56 314.1 86.56 312.01 82.56 C 309.92 78.56 316 80.52 320 80 C 324 79.48 331.36 77.4 328.67 81.4 C 325.98 85.4 333.98 85.4 332.67 81.4 C 331.36 77.4 336 80.49 340 80 C 344 79.51 349.76 82.02 348.14 78.02 C 346.51 74.02 354.51 74.02 352.14 78.02 C 349.76 82.02 356 79.76 360 80 C 364 80.24 369.46 78.6 367.54 82.6 C 365.61 86.6 373.61 86.6 371.54 82.6 C 369.46 78.6 376 80.59 380 80 C 384 79.41 390.09 82.53 388 78.53 C 385.9 74.53 393.9 74.53 392 78.53 C 390.09 82.53 396 80.46 400 80 M 0,100 C 4 99.78 9.14 97.98 7.44 101.98 C 5.75 105.98 13.75 105.98 11.44 101.98 C 9.14 97.98 16 99.77 20 100 C 24 100.23 30.2 101.53 27.48 97.53 C 24.76 93.53 32.76 93.53 31.48 97.53 C 30.2 101.53 36 99.56 40 100 C 44 100.44 50.29 101.3 47.84 97.3 C 45.39 93.3 53.39 93.3 51.84 97.3 C 50.29 101.3 56 99.86 60 100 C 64 100.14 69.36 98.32 67.61 102.32 C 65.86 106.32 73.86 106.32 71.61 102.32 C 69.36 98.32 76 100.54 80 100 C 84 99.46 90.74 97.93 88.47 101.93 C 86.21 105.93 94.21 105.93 92.47 101.93 C 90.74 97.93 96 99.3 100 100 C 104 100.7 109.59 101.2 107.73 97.2 C 105.86 93.2 113.86 93.2 111.73 97.2 C 109.59 101.2 116 99.46 120 100 C 124 100.54 129.63 102.01 127.43 98.01 C 125.23 94.01 133.23 94.01 131.43 98.01 C 129.63 102.01 136 100.21 140 100 C 144 99.79 148.87 102.11 147.26 98.11 C 145.65 94.11 153.65 94.11 151.26 98.11 C 148.87 102.11 156 100.5 160 100 C 164 99.5 169.55 98.13 167.41 102.13 C 165.28 106.13 173.28 106.13 171.41 102.13 C 169.55 98.13 176 99.91 180 100 C 184 100.09 190.73 102.6 188.44 98.6 C 186.14 94.6 194.14 94.6 192.44 98.6 C 190.73 102.6 196 99.45 200 100 C 204 100.55 211.09 97.88 208.63 101.88 C 206.17 105.88 214.17 105.88 212.63 101.88 C 211.09 97.88 216 99.28 220 100 C 224 100.72 230.21 97.55 228.12 101.55 C 226.03 105.55 234.03 105.55 232.12 101.55 C 230.21 97.55 236 99.88 240 100 C 244 100.12 250.48 102.15 248.33 98.15 C 246.18 94.15 254.18 94.15 252.33 98.15 C 250.48 102.15 256 99.23 260 100 C 264 100.77 269.77 101.96 268.56 97.96 C 267.36 93.96 275.36 93.96 272.56 97.96 C 269.77 101.96 276 99.45 280 100 C 284 100.55 289.45 102 288.22 98 C 286.99 94 294.99 94 292.22 98 C 289.45 102 296 99.33 300 100 C 304 100.67 310.12 97.84 308.54 101.84 C 306.96 105.84 314.96 105.84 312.54 101.84 C 310.12 97.84 316 99.67 320 100 C 324 100.33 329.49 102.67 327.3 98.67 C 325.12 94.67 333.12 94.67 331.3 98.67 C 329.49 102.67 336 100.18 340 100 C 344 99.82 349.82 101.29 347.57 97.29 C 345.32 93.29 353.32 93.29 351.57 97.29 C 349.82 101.29 356 100.11 360 100 C 364 99.89 369.72 101.5 367.64 97.5 C 365.57 93.5 373.57 93.5 371.64 97.5 C 369.72 101.5 376 99.21 380 100 C 384 100.79 389.79 97.6 387.21 101.6 C 384.64 105.6 392.64 105.6 391.21 101.6 C 389.79 97.6 396 100.56 400 100 M 0,120 C 4 119.45 8.75 118.45 7.41 122.45 C 6.08 126.45 14.08 126.45 11.41 122.45 C 8.75 118.45 16 119.26 20 120 C 24 120.74 29.08 118.01 27.79 122.01 C 26.49 126.01 34.49 126.01 31.79 122.01 C 29.08 118.01 36 120.16 40 120 C 44 119.84 50 118.44 48.47 122.44 C 46.94 126.44 54.94 126.44 52.47 122.44 C 50 118.44 56 120.58 60 120 C 64 119.42 69.18 118.53 67.43 122.53 C 65.69 126.53 73.69 126.53 71.43 122.53 C 69.18 118.53 76 119.3 80 120 C 84 120.7 89.97 118.29 88.66 122.29 C 87.35 126.29 95.35 126.29 92.66 122.29 C 89.97 118.29 96 120.77 100 120 C 104 119.23 108.57 117.36 107.28 121.36 C 105.99 125.36 113.99 125.36 111.28 121.36 C 108.57 117.36 116 120.51 120 120 C 124 119.49 130.41 122.78 128.67 118.78 C 126.93 114.78 134.93 114.78 132.67 118.78 C 130.41 122.78 136 119.65 140 120 C 144 120.35 149.59 118.18 147.21 122.18 C 144.82 126.18 152.82 126.18 151.21 122.18 C 149.59 118.18 156 119.42 160 120 C 164 120.58 169.28 117.62 167.9 121.62 C 166.52 125.62 174.52 125.62 171.9 121.62 C 169.28 117.62 176 120.5 180 120 C 184 119.5 189.3 118.14 187.98 122.14 C 186.65 126.14 194.65 126.14 191.98 122.14 C 189.3 118.14 196 119.51 200 120 C 204 120.49 211.05 118.29 208.4 122.29 C 205.76 126.29 213.76 126.29 212.4 122.29 C 211.05 118.29 216 119.96 220 120 C 224 120.04 230.05 117.95 227.99 121.95 C 225.94 125.95 233.94 125.95 231.99 121.95 C 230.05 117.95 236 120.61 240 120 C 244 119.39 249.66 117.44 247.85 121.44 C 246.04 125.44 254.04 125.44 251.85 121.44 C 249.66 117.44 256 120.45 260 120 C 264 119.55 270.15 117.92 267.63 121.92 C 265.11 125.92 273.11 125.92 271.63 121.92 C 270.15 117.92 276 120.68 280 120 C 284 119.32 290.89 122.61 288.41 118.61 C 285.94 114.61 293.94 114.61 292.41 118.61 C 290.89 122.61 296 119.87 300 120 C 304 120.13 309.38 121.81 307.25 117.81 C 305.12 113.81 313.12 113.81 311.25 117.81 C 309.38 121.81 316 119.62 320 120 C 324 120.38 329.85 122.54 327.81 118.54 C 325.76 114.54 333.76 114.54 331.81 118.54 C 329.85 122.54 336 119.55 340 120 C 344 120.45 349.48 118.02 348.18 122.02 C 346.88 126.02 354.88 126.02 352.18 122.02 C 349.48 118.02 356 119.78 360 120 C 364 120.22 368.56 117.24 367.29 121.24 C 366.02 125.24 374.02 125.24 371.29 121.24 C 368.56 117.24 376 119.56 380 120 C 384 120.44 389.87 121.85 387.91 117.85 C 385.95 113.85 393.95 113.85 391.91 117.85 C 389.87 121.85 396 120.42 400 120 M 0,140 C 4 140.7 10.11 138.1 8.74 142.1 C 7.37 146.1 15.37 146.1 12.74 142.1 C 10.11 138.1 16 139.52 20 140 C 24 140.48 29.89 137.94 28.45 141.94 C 27.01 145.94 35.01 145.94 32.45 141.94 C 29.89 137.94 36 139.83 40 140 C 44 140.17 49.71 142.39 47.64 138.39 C 45.58 134.39 53.58 134.39 51.64 138.39 C 49.71 142.39 56 139.21 60 140 C 64 140.79 70.11 138.6 68.18 142.6 C 66.26 146.6 74.26 146.6 72.18 142.6 C 70.11 138.6 76 139.42 80 140 C 84 140.58 90.17 137.73 88.51 141.73 C 86.85 145.73 94.85 145.73 92.51 141.73 C 90.17 137.73 96 140.34 100 140 C 104 139.66 110.83 138.71 108.71 142.71 C 106.59 146.71 114.59 146.71 112.71 142.71 C 110.83 138.71 116 140.04 120 140 C 124 139.96 131.12 141.77 128.67 137.77 C 126.23 133.77 134.23 133.77 132.67 137.77 C 131.12 141.77 136 140.29 140 140 C 144 139.71 149.97 141.25 148.1 137.25 C 146.23 133.25 154.23 133.25 152.1 137.25 C 149.97 141.25 156 140.51 160 140 C 164 139.49 170.33 141.7 167.79 137.7 C 165.25 133.7 173.25 133.7 171.79 137.7 C 170.33 141.7 176 140.72 180 140 C 184 139.28 190.13 142.79 188.11 138.79 C 186.08 134.79 194.08 134.79 192.11 138.79 C 190.13 142.79 196 140.34 200 140 C 204 139.66 209.95 141.59 208.75 137.59 C 207.55 133.59 215.55 133.59 212.75 137.59 C 209.95 141.59 216 140.34 220 140 C 224 139.66 231.09 138.36 228.53 142.36 C 225.98 146.36 233.98 146.36 232.53 142.36 C 231.09 138.36 236 139.44 240 140 C 244 140.56 250.88 141.49 248.29 137.49 C 245.71 133.49 253.71 133.49 252.29 137.49 C 250.88 141.49 256 140.14 260 140 C 264 139.86 270.66 141.35 268.48 137.35 C 266.3 133.35 274.3 133.35 272.48 137.35 C 270.66 141.35 276 139.65 280 140 C 284 140.35 288.66 138.71 287.39 142.71 C 286.11 146.71 294.11 146.71 291.39 142.71 C 288.66 138.71 296 140.53 300 140 C 304 139.47 309.41 142.08 307.75 138.08 C 306.09 134.08 314.09 134.08 311.75 138.08 C 309.41 142.08 316 140.44 320 140 C 324 139.56 329.89 141.88 327.86 137.88 C 325.83 133.88 333.83 133.88 331.86 137.88 C 329.89 141.88 336 140.69 340 140 C 344 139.31 349.09 138.44 347.7 142.44 C 346.31 146.44 354.31 146.44 351.7 142.44 C 349.09 138.44 356 140.35 360 140 C 364 139.65 370.99 142.36 368.44 138.36 C 365.88 134.36 373.88 134.36 372.44 138.36 C 370.99 142.36 376 140.73 380 140 C 384 139.27 389.66 138.09 387.72 142.09 C 385.77 146.09 393.77 146.09 391.72 142.09 C 389.66 138.09 396 140.72 400 140 M 0,160 C 4 160.46 10.76 162.58 8.07 158.58 C 5.38 154.58 13.38 154.58 12.07 158.58 C 10.76 162.58 16 160.49 20 160 C 24 159.51 29.63 158.03 27.77 162.03 C 25.9 166.03 33.9 166.03 31.77 162.03 C 29.63 158.03 36 160.51 40 160 C 44 159.49 50.76 158.48 48.26 162.48 C 45.76 166.48 53.76 166.48 52.26 162.48 C 50.76 158.48 56 159.65 60 160 C 64 160.35 69.27 157.57 67.73 161.57 C 66.2 165.57 74.2 165.57 71.73 161.57 C 69.27 157.57 76 160.14 80 160 C 84 159.86 88.59 158.75 87.37 162.75 C 86.15 166.75 94.15 166.75 91.37 162.75 C 88.59 158.75 96 159.6 100 160 C 104 160.4 108.92 161.54 107.61 157.54 C 106.3 153.54 114.3 153.54 111.61 157.54 C 108.92 161.54 116 160.14 120 160 C 124 159.86 131.01 162.23 128.63 158.23 C 126.26 154.23 134.26 154.23 132.63 158.23 C 131.01 162.23 136 159.52 140 160 C 144 160.48 150.27 157.6 147.87 161.6 C 145.48 165.6 153.48 165.6 151.87 161.6 C 150.27 157.6 156 160.32 160 160 C 164 159.68 170.5 162.77 168.46 158.77 C 166.42 154.77 174.42 154.77 172.46 158.77 C 170.5 162.77 176 160.75 180 160 C 184 159.25 190.08 158.28 188.03 162.28 C 185.98 166.28 193.98 166.28 192.03 162.28 C 190.08 158.28 196 160.44 200 160 C 204 159.56 209.11 161.34 207.9 157.34 C 206.69 153.34 214.69 153.34 211.9 157.34 C 209.11 161.34 216 160.3 220 160 C 224 159.7 230.48 158.56 228.61 162.56 C 226.73 166.56 234.73 166.56 232.61 162.56 C 230.48 158.56 236 160.54 240 160 C 244 159.46 250.45 158.61 248.4 162.61 C 246.35 166.61 254.35 166.61 252.4 162.61 C 250.45 158.61 256 159.44 260 160 C 264 160.56 269.84 161.3 267.74 157.3 C 265.65 153.3 273.65 153.3 271.74 157.3 C 269.84 161.3 276 160.32 280 160 C 284 159.68 291.35 157.97 288.67 161.97 C 285.98 165.97 293.98 165.97 292.67 161.97 C 291.35 157.97 296 159.68 300 160 C 304 160.32 309.91 158.64 308.48 162.64 C 307.05 166.64 315.05 166.64 312.48 162.64 C 309.91 158.64 316 159.96 320 160 C 324 160.04 329.49 157.4 327.63 161.4 C 325.76 165.4 333.76 165.4 331.63 161.4 C 329.49 157.4 336 159.48 340 160 C 344 160.52 349.9 158.27 347.2 162.27 C 344.51 166.27 352.51 166.27 351.2 162.27 C 349.9 158.27 356 160.3 360 160 C 364 159.7 368.87 161.49 367.45 157.49 C 366.03 153.49 374.03 153.49 371.45 157.49 C 368.87 161.49 376 159.93 380 160 C 384 160.07 390.24 158.21 388.55 162.21 C 386.87 166.21 394.87 166.21 392.55 162.21 C 390.24 158.21 396 159.75 400 160 M 0,180 C 4 179.51 10.11 181.97 7.62 177.97 C 5.14 173.97 13.14 173.97 11.62 177.97 C 10.11 181.97 16 180.56 20 180 C 24 179.44 29.95 181.26 27.66 177.26 C 25.37 173.26 33.37 173.26 31.66 177.26 C 29.95 181.26 36 180.72 40 180 C 44 179.28 49.99 181.74 47.73 177.74 C 45.47 173.74 53.47 173.74 51.73 177.74 C 49.99 181.74 56 180.2 60 180 C 64 179.8 70.2 181.49 67.67 177.49 C 65.15 173.49 73.15 173.49 71.67 177.49 C 70.2 181.49 76 180.72 80 180 C 84 179.28 89.83 177.23 88.12 181.23 C 86.42 185.23 94.42 185.23 92.12 181.23 C 89.83 177.23 96 179.67 100 180 C 104 180.33 109.14 182.62 107.86 178.62 C 106.58 174.62 114.58 174.62 111.86 178.62 C 109.14 182.62 116 180.25 120 180 C 124 179.75 130.25 177.33 128.03 181.33 C 125.81 185.33 133.81 185.33 132.03 181.33 C 130.25 177.33 136 179.47 140 180 C 144 180.53 149.6 182 147.46 178 C 145.31 174 153.31 174 151.46 178 C 149.6 182 156 180.52 160 180 C 164 179.48 169.5 178.36 167.6 182.36 C 165.7 186.36 173.7 186.36 171.6 182.36 C 169.5 178.36 176 179.51 180 180 C 184 180.49 189.9 181.52 188.1 177.52 C 186.31 173.52 194.31 173.52 192.1 177.52 C 189.9 181.52 196 180.64 200 180 C 204 179.36 210.13 178.7 208.7 182.7 C 207.27 186.7 215.27 186.7 212.7 182.7 C 210.13 178.7 216 179.84 220 180 C 224 180.16 229.59 182.04 228.26 178.04 C 226.92 174.04 234.92 174.04 232.26 178.04 C 229.59 182.04 236 179.89 240 180 C 244 180.11 249.56 177.79 247.3 181.79 C 245.04 185.79 253.04 185.79 251.3 181.79 C 249.56 177.79 256 180.51 260 180 C 264 179.49 270.64 177.77 267.97 181.77 C 265.3 185.77 273.3 185.77 271.97 181.77 C 270.64 177.77 276 180.29 280 180 C 284 179.71 289.36 177.33 287.85 181.33 C 286.34 185.33 294.34 185.33 291.85 181.33 C 289.36 177.33 296 179.68 300 180 C 304 180.32 310.75 181.36 308.22 177.36 C 305.68 173.36 313.68 173.36 312.22 177.36 C 310.75 181.36 316 179.21 320 180 C 324 180.79 330.65 182.29 328.69 178.29 C 326.73 174.29 334.73 174.29 332.69 178.29 C 330.65 182.29 336 179.77 340 180 C 344 180.23 351.34 178.29 348.62 182.29 C 345.9 186.29 353.9 186.29 352.62 182.29 C 351.34 178.29 356 179.51 360 180 C 364 180.49 370.33 178.75 368.53 182.75 C 366.72 186.75 374.72 186.75 372.53 182.75 C 370.33 178.75 376 179.57 380 180 C 384 180.43 390.05 177.41 387.54 181.41 C 385.03 185.41 393.03 185.41 391.54 181.41 C 390.05 177.41 396 180.49 400 180 "></path><path fill="none" stroke="DarkRed" stroke-width="0.1" d="M 20,0 C 20.46 4 22.54 8.76 18.54 7.44 C 14.54 6.11 14.54 14.11 18.54 11.44 C 22.54 8.76 20 16 20 20 C 20 24 21.74 30.21 17.74 28.65 C 13.74 27.09 13.74 35.09 17.74 32.65 C 21.74 30.21 19.92 36 20 40 C 20.08 44 21.95 50.35 17.95 48.27 C 13.95 46.19 13.95 54.19 17.95 52.27 C 21.95 50.35 20.4 56 20 60 C 19.6 64 18.22 70.43 22.22 68.47 C 26.22 66.51 26.22 74.51 22.22 72.47 C 18.22 70.43 20.29 76 20 80 C 19.71 84 17.48 90.23 21.48 88.61 C 25.48 86.98 25.48 94.98 21.48 92.61 C 17.48 90.23 19.25 96 20 100 C 20.75 104 22.09 109.6 18.09 107.48 C 14.09 105.35 14.09 113.35 18.09 111.48 C 22.09 109.6 19.48 116 20 120 C 20.52 124 21.91 131.3 17.91 128.51 C 13.91 125.72 13.91 133.72 17.91 132.51 C 21.91 131.3 20.03 136 20 140 C 19.97 144 21.37 149.87 17.37 147.46 C 13.37 145.04 13.37 153.04 17.37 151.46 C 21.37 149.87 20.5 156 20 160 C 19.5 164 22.64 168.9 18.64 167.3 C 14.64 165.69 14.64 173.69 18.64 171.3 C 22.64 168.9 20.31 176 20 180 C 19.69 184 22.24 189.28 18.24 188.05 C 14.24 186.81 14.24 194.81 18.24 192.05 C 22.24 189.28 19.43 196 20 200 M 40,0 C 39.62 4 41.26 10.04 37.26 7.69 C 33.26 5.33 33.26 13.33 37.26 11.69 C 41.26 10.04 39.22 16 40 20 C 40.78 24 41.53 31.15 37.53 28.7 C 33.53 26.24 33.53 34.24 37.53 32.7 C 41.53 31.15 40.17 36 40 40 C 39.83 44 42.56 49.22 38.56 47.78 C 34.56 46.34 34.56 54.34 38.56 51.78 C 42.56 49.22 39.32 56 40 60 C 40.68 64 41.62 69.47 37.62 67.98 C 33.62 66.49 33.62 74.49 37.62 71.98 C 41.62 69.47 40.09 76 40 80 C 39.91 84 41.64 89.6 37.64 87.43 C 33.64 85.26 33.64 93.26 37.64 91.43 C 41.64 89.6 40.19 96 40 100 C 39.81 104 42.5 109.95 38.5 108.74 C 34.5 107.52 34.5 115.52 38.5 112.74 C 42.5 109.95 39.61 116 40 120 C 40.39 124 41.53 130.22 37.53 127.48 C 33.53 124.74 33.53 132.74 37.53 131.48 C 41.53 130.22 39.31 136 40 140 C 40.69 144 42.36 150.13 38.36 148.78 C 34.36 147.43 34.36 155.43 38.36 152.78 C 42.36 150.13 39.44 156 40 160 C 40.56 164 41.81 169.44 37.81 167.66 C 33.81 165.88 33.81 173.88 37.81 171.66 C 41.81 169.44 40.74 176 40 180 C 39.26 184 37.62 190.31 41.62 188.51 C 45.62 186.71 45.62 194.71 41.62 192.51 C 37.62 190.31 40.21 196 40 200 M 60,0 C 60.07 4 57.61 10.08 61.61 7.91 C 65.61 5.74 65.61 13.74 61.61 11.91 C 57.61 10.08 60.73 16 60 20 C 59.27 24 62.35 29.86 58.35 28.38 C 54.35 26.89 54.35 34.89 58.35 32.38 C 62.35 29.86 59.6 36 60 40 C 60.4 44 62.1 51.28 58.1 48.77 C 54.1 46.26 54.1 54.26 58.1 52.77 C 62.1 51.28 60.8 56 60 60 C 59.2 64 58.78 69.47 62.78 67.6 C 66.78 65.73 66.78 73.73 62.78 71.6 C 58.78 69.47 60.77 76 60 80 C 59.23 84 57.81 90.23 61.81 87.83 C 65.81 85.43 65.81 93.43 61.81 91.83 C 57.81 90.23 59.75 96 60 100 C 60.25 104 62.53 109.8 58.53 107.78 C 54.53 105.76 54.53 113.76 58.53 111.78 C 62.53 109.8 59.46 116 60 120 C 60.54 124 57.76 130.13 61.76 128.02 C 65.76 125.91 65.76 133.91 61.76 132.02 C 57.76 130.13 60.57 136 60 140 C 59.43 144 61.38 150.57 57.38 148.64 C 53.38 146.7 53.38 154.7 57.38 152.64 C 61.38 150.57 60.29 156 60 160 C 59.71 164 61.87 170.43 57.87 168.46 C 53.87 166.49 53.87 174.49 57.87 172.46 C 61.87 170.43 60.4 176 60 180 C 59.6 184 61.9 190.27 57.9 187.55 C 53.9 184.83 53.9 192.83 57.9 191.55 C 61.9 190.27 60.65 196 60 200 M 80,0 C 79.27 4 78.69 10.59 82.69 8.28 C 86.69 5.98 86.69 13.98 82.69 12.28 C 78.69 10.59 80.18 16 80 20 C 79.82 24 81.74 29.02 77.74 27.79 C 73.74 26.55 73.74 34.55 77.74 31.79 C 81.74 29.02 79.33 36 80 40 C 80.67 44 82.73 50.24 78.73 48.47 C 74.73 46.71 74.73 54.71 78.73 52.47 C 82.73 50.24 80.61 56 80 60 C 79.39 64 82.59 69.76 78.59 67.32 C 74.59 64.88 74.59 72.88 78.59 71.32 C 82.59 69.76 80.57 76 80 80 C 79.43 84 82.61 89.56 78.61 87.5 C 74.61 85.43 74.61 93.43 78.61 91.5 C 82.61 89.56 79.99 96 80 100 C 80.01 104 78.52 110.43 82.52 108.05 C 86.52 105.68 86.52 113.68 82.52 112.05 C 78.52 110.43 80.28 116 80 120 C 79.72 124 82.47 129.61 78.47 127.84 C 74.47 126.06 74.47 134.06 78.47 131.84 C 82.47 129.61 79.41 136 80 140 C 80.59 144 77.87 150.07 81.87 147.9 C 85.87 145.73 85.87 153.73 81.87 151.9 C 77.87 150.07 80.31 156 80 160 C 79.69 164 82.52 170.36 78.52 167.98 C 74.52 165.6 74.52 173.6 78.52 171.98 C 82.52 170.36 79.35 176 80 180 C 80.65 184 77.66 189.84 81.66 188.48 C 85.66 187.12 85.66 195.12 81.66 192.48 C 77.66 189.84 80.75 196 80 200 M 100,0 C 99.24 4 97.83 10.8 101.83 8.75 C 105.83 6.71 105.83 14.71 101.83 12.75 C 97.83 10.8 99.86 16 100 20 C 100.14 24 97.58 29.72 101.58 28.21 C 105.58 26.7 105.58 34.7 101.58 32.21 C 97.58 29.72 99.51 36 100 40 C 100.49 44 102.56 49.92 98.56 47.61 C 94.56 45.31 94.56 53.31 98.56 51.61 C 102.56 49.92 100.02 56 100 60 C 99.98 64 101.7 70.03 97.7 67.38 C 93.7 64.73 93.7 72.73 97.7 71.38 C 101.7 70.03 100.56 76 100 80 C 99.44 84 97.63 89.03 101.63 87.29 C 105.63 85.55 105.63 93.55 101.63 91.29 C 97.63 89.03 99.82 96 100 100 C 100.18 104 97.72 111.22 101.72 108.59 C 105.72 105.96 105.72 113.96 101.72 112.59 C 97.72 111.22 100.29 116 100 120 C 99.71 124 97.59 128.8 101.59 127.22 C 105.59 125.63 105.59 133.63 101.59 131.22 C 97.59 128.8 100.26 136 100 140 C 99.74 144 101.83 150.48 97.83 148.33 C 93.83 146.17 93.83 154.17 97.83 152.33 C 101.83 150.48 99.79 156 100 160 C 100.21 164 102.58 169.71 98.58 167.88 C 94.58 166.05 94.58 174.05 98.58 171.88 C 102.58 169.71 100.42 176 100 180 C 99.58 184 101.71 189.65 97.71 187.57 C 93.71 185.48 93.71 193.48 97.71 191.57 C 101.71 189.65 99.42 196 100 200 M 120,0 C 119.22 4 122.28 9.53 118.28 7.44 C 114.28 5.35 114.28 13.35 118.28 11.44 C 122.28 9.53 120.63 16 120 20 C 119.37 24 121.7 31 117.7 28.4 C 113.7 25.8 113.7 33.8 117.7 32.4 C 121.7 31 119.79 36 120 40 C 120.21 44 118.41 48.86 122.41 47.5 C 126.41 46.13 126.41 54.13 122.41 51.5 C 118.41 48.86 119.71 56 120 60 C 120.29 64 117.94 69.87 121.94 68.63 C 125.94 67.39 125.94 75.39 121.94 72.63 C 117.94 69.87 120.49 76 120 80 C 119.51 84 118.11 90.56 122.11 88.77 C 126.11 86.97 126.11 94.97 122.11 92.77 C 118.11 90.56 119.87 96 120 100 C 120.13 104 121.33 109.93 117.33 108.45 C 113.33 106.97 113.33 114.97 117.33 112.45 C 121.33 109.93 119.97 116 120 120 C 120.03 124 121.8 130.21 117.8 128.58 C 113.8 126.95 113.8 134.95 117.8 132.58 C 121.8 130.21 119.74 136 120 140 C 120.26 144 117.59 150.22 121.59 148.03 C 125.59 145.85 125.59 153.85 121.59 152.03 C 117.59 150.22 120.26 156 120 160 C 119.74 164 118.18 170.64 122.18 168.19 C 126.18 165.74 126.18 173.74 122.18 172.19 C 118.18 170.64 119.71 176 120 180 C 120.29 184 121.38 189.7 117.38 187.29 C 113.38 184.88 113.38 192.88 117.38 191.29 C 121.38 189.7 120.62 196 120 200 M 140,0 C 140.75 4 141.32 9.88 137.32 7.76 C 133.32 5.64 133.32 13.64 137.32 11.76 C 141.32 9.88 139.41 16 140 20 C 140.59 24 142.69 31.08 138.69 28.4 C 134.69 25.72 134.69 33.72 138.69 32.4 C 142.69 31.08 139.68 36 140 40 C 140.32 44 142.41 51.42 138.41 48.73 C 134.41 46.04 134.41 54.04 138.41 52.73 C 142.41 51.42 140.35 56 140 60 C 139.65 64 138.65 70.81 142.65 68.41 C 146.65 66.01 146.65 74.01 142.65 72.41 C 138.65 70.81 139.82 76 140 80 C 140.18 84 138.35 90.19 142.35 88.67 C 146.35 87.15 146.35 95.15 142.35 92.67 C 138.35 90.19 139.74 96 140 100 C 140.26 104 138.7 109.93 142.7 108.22 C 146.7 106.51 146.7 114.51 142.7 112.22 C 138.7 109.93 139.43 116 140 120 C 140.57 124 138.39 130.86 142.39 128.1 C 146.39 125.34 146.39 133.34 142.39 132.1 C 138.39 130.86 140.3 136 140 140 C 139.7 144 141.95 149.5 137.95 147.38 C 133.95 145.25 133.95 153.25 137.95 151.38 C 141.95 149.5 139.36 156 140 160 C 140.64 164 137.92 170.77 141.92 168.14 C 145.92 165.52 145.92 173.52 141.92 172.14 C 137.92 170.77 140.21 176 140 180 C 139.79 184 137.6 190.88 141.6 188.28 C 145.6 185.69 145.6 193.69 141.6 192.28 C 137.6 190.88 140.68 196 140 200 M 160,0 C 159.81 4 157.29 9.37 161.29 8.03 C 165.29 6.69 165.29 14.69 161.29 12.03 C 157.29 9.37 160.29 16 160 20 C 159.71 24 161.31 30.7 157.31 28.34 C 153.31 25.99 153.31 33.99 157.31 32.34 C 161.31 30.7 159.93 36 160 40 C 160.07 44 157.25 50.91 161.25 48.29 C 165.25 45.68 165.25 53.68 161.25 52.29 C 157.25 50.91 160.16 56 160 60 C 159.84 64 162.36 69.07 158.36 67.75 C 154.36 66.43 154.36 74.43 158.36 71.75 C 162.36 69.07 160.28 76 160 80 C 159.72 84 162.44 89.98 158.44 87.61 C 154.44 85.24 154.44 93.24 158.44 91.61 C 162.44 89.98 160.45 96 160 100 C 159.55 104 157.97 110.16 161.97 107.94 C 165.97 105.73 165.97 113.73 161.97 111.94 C 157.97 110.16 159.29 116 160 120 C 160.71 124 157.29 130.24 161.29 128.44 C 165.29 126.65 165.29 134.65 161.29 132.44 C 157.29 130.24 160.07 136 160 140 C 159.93 144 158.27 151.05 162.27 148.74 C 166.27 146.42 166.27 154.42 162.27 152.74 C 158.27 151.05 160.45 156 160 160 C 159.55 164 157.36 169.32 161.36 167.48 C 165.36 165.64 165.36 173.64 161.36 171.48 C 157.36 169.32 159.46 176 160 180 C 160.54 184 158.76 190.08 162.76 187.29 C 166.76 184.5 166.76 192.5 162.76 191.29 C 158.76 190.08 160.41 196 160 200 M 180,0 C 180.35 4 182.08 9.24 178.08 7.33 C 174.08 5.41 174.08 13.41 178.08 11.33 C 182.08 9.24 179.89 16 180 20 C 180.11 24 177.3 30.72 181.3 27.92 C 185.3 25.12 185.3 33.12 181.3 31.92 C 177.3 30.72 179.84 36 180 40 C 180.16 44 182.6 50.16 178.6 47.75 C 174.6 45.34 174.6 53.34 178.6 51.75 C 182.6 50.16 179.3 56 180 60 C 180.7 64 181.89 70.41 177.89 68.79 C 173.89 67.17 173.89 75.17 177.89 72.79 C 181.89 70.41 179.67 76 180 80 C 180.33 84 181.99 89.85 177.99 87.27 C 173.99 84.68 173.99 92.68 177.99 91.27 C 181.99 89.85 180.5 96 180 100 C 179.5 104 177.39 110.47 181.39 108.58 C 185.39 106.69 185.39 114.69 181.39 112.58 C 177.39 110.47 180.73 116 180 120 C 179.27 124 182.41 129.41 178.41 127.76 C 174.41 126.11 174.41 134.11 178.41 131.76 C 182.41 129.41 180.42 136 180 140 C 179.58 144 182.29 151.19 178.29 148.4 C 174.29 145.6 174.29 153.6 178.29 152.4 C 182.29 151.19 179.38 156 180 160 C 180.62 164 182.74 170.07 178.74 168.3 C 174.74 166.52 174.74 174.52 178.74 172.3 C 182.74 170.07 180.62 176 180 180 C 179.38 184 181.79 188.64 177.79 187.41 C 173.79 186.18 173.79 194.18 177.79 191.41 C 181.79 188.64 179.82 196 180 200 M 200,0 C 199.49 4 201.29 9.85 197.29 8.1 C 193.29 6.35 193.29 14.35 197.29 12.1 C 201.29 9.85 200.43 16 200 20 C 199.57 24 198.3 29.91 202.3 27.58 C 206.3 25.24 206.3 33.24 202.3 31.58 C 198.3 29.91 199.32 36 200 40 C 200.68 44 201.83 50.28 197.83 48.59 C 193.83 46.9 193.83 54.9 197.83 52.59 C 201.83 50.28 199.54 56 200 60 C 200.46 64 201.52 69.97 197.52 67.72 C 193.52 65.46 193.52 73.46 197.52 71.72 C 201.52 69.97 200.01 76 200 80 C 199.99 84 198.08 89.55 202.08 87.77 C 206.08 85.99 206.08 93.99 202.08 91.77 C 198.08 89.55 200.78 96 200 100 C 199.22 104 197.55 109.5 201.55 107.71 C 205.55 105.93 205.55 113.93 201.55 111.71 C 197.55 109.5 199.47 116 200 120 C 200.53 124 201.93 129.57 197.93 128.26 C 193.93 126.95 193.93 134.95 197.93 132.26 C 201.93 129.57 199.86 136 200 140 C 200.14 144 198.68 150.63 202.68 148.35 C 206.68 146.06 206.68 154.06 202.68 152.35 C 198.68 150.63 199.81 156 200 160 C 200.19 164 197.82 168.88 201.82 167.35 C 205.82 165.81 205.82 173.81 201.82 171.35 C 197.82 168.88 200.01 176 200 180 C 199.99 184 198.04 189.66 202.04 187.91 C 206.04 186.16 206.04 194.16 202.04 191.91 C 198.04 189.66 200.67 196 200 200 M 220,0 C 220.2 4 217.93 9.59 221.93 7.61 C 225.93 5.63 225.93 13.63 221.93 11.61 C 217.93 9.59 220.3 16 220 20 C 219.7 24 221.38 30.89 217.38 28.75 C 213.38 26.6 213.38 34.6 217.38 32.75 C 221.38 30.89 220.02 36 220 40 C 219.98 44 221.58 51.33 217.58 48.59 C 213.58 45.85 213.58 53.85 217.58 52.59 C 221.58 51.33 219.56 56 220 60 C 220.44 64 218.13 70.73 222.13 68.32 C 226.13 65.92 226.13 73.92 222.13 72.32 C 218.13 70.73 220.29 76 220 80 C 219.71 84 221.57 90.83 217.57 88.47 C 213.57 86.12 213.57 94.12 217.57 92.47 C 221.57 90.83 219.69 96 220 100 C 220.31 104 218.67 109.51 222.67 108.14 C 226.67 106.78 226.67 114.78 222.67 112.14 C 218.67 109.51 220.11 116 220 120 C 219.89 124 222.68 130.18 218.68 128.11 C 214.68 126.03 214.68 134.03 218.68 132.11 C 222.68 130.18 220.18 136 220 140 C 219.82 144 218.55 149.83 222.55 147.72 C 226.55 145.6 226.55 153.6 222.55 151.72 C 218.55 149.83 220.58 156 220 160 C 219.42 164 218.41 169.12 222.41 167.24 C 226.41 165.36 226.41 173.36 222.41 171.24 C 218.41 169.12 219.61 176 220 180 C 220.39 184 222.15 190.51 218.15 188.53 C 214.15 186.54 214.15 194.54 218.15 192.53 C 222.15 190.51 219.64 196 220 200 M 240,0 C 239.61 4 237.78 9.21 241.78 7.43 C 245.78 5.66 245.78 13.66 241.78 11.43 C 237.78 9.21 240.56 16 240 20 C 239.44 24 242.05 29.49 238.05 27.81 C 234.05 26.14 234.05 34.14 238.05 31.81 C 242.05 29.49 239.26 36 240 40 C 240.74 44 241.24 49.48 237.24 48.12 C 233.24 46.76 233.24 54.76 237.24 52.12 C 241.24 49.48 240.68 56 240 60 C 239.32 64 238.39 70.88 242.39 68.23 C 246.39 65.57 246.39 73.57 242.39 72.23 C 238.39 70.88 240.71 76 240 80 C 239.29 84 241.66 89.78 237.66 88.34 C 233.66 86.9 233.66 94.9 237.66 92.34 C 241.66 89.78 240.53 96 240 100 C 239.47 104 242.67 109.41 238.67 107.26 C 234.67 105.11 234.67 113.11 238.67 111.26 C 242.67 109.41 239.47 116 240 120 C 240.53 124 241.84 129.37 237.84 127.28 C 233.84 125.19 233.84 133.19 237.84 131.28 C 241.84 129.37 239.38 136 240 140 C 240.62 144 238.56 150.96 242.56 148.32 C 246.56 145.69 246.56 153.69 242.56 152.32 C 238.56 150.96 240.06 156 240 160 C 239.94 164 238.57 170.41 242.57 168.35 C 246.57 166.29 246.57 174.29 242.57 172.35 C 238.57 170.41 239.38 176 240 180 C 240.62 184 242.68 189.74 238.68 187.33 C 234.68 184.92 234.68 192.92 238.68 191.33 C 242.68 189.74 240.56 196 240 200 M 260,0 C 260.17 4 262.52 9.58 258.52 7.33 C 254.52 5.08 254.52 13.08 258.52 11.33 C 262.52 9.58 259.71 16 260 20 C 260.29 24 262.17 28.9 258.17 27.41 C 254.17 25.92 254.17 33.92 258.17 31.41 C 262.17 28.9 259.22 36 260 40 C 260.78 44 258.61 49.87 262.61 48 C 266.61 46.12 266.61 54.12 262.61 52 C 258.61 49.87 260.44 56 260 60 C 259.56 64 258.46 68.64 262.46 67.36 C 266.46 66.07 266.46 74.07 262.46 71.36 C 258.46 68.64 259.65 76 260 80 C 260.35 84 258.15 90.61 262.15 88.72 C 266.15 86.83 266.15 94.83 262.15 92.72 C 258.15 90.61 259.67 96 260 100 C 260.33 104 258.61 110.03 262.61 108.21 C 266.61 106.39 266.61 114.39 262.61 112.21 C 258.61 110.03 260.34 116 260 120 C 259.66 124 258.47 130.28 262.47 128.34 C 266.47 126.39 266.47 134.39 262.47 132.34 C 258.47 130.28 260.69 136 260 140 C 259.31 144 257.66 149.6 261.66 147.79 C 265.66 145.98 265.66 153.98 261.66 151.79 C 257.66 149.6 260.11 156 260 160 C 259.89 164 257.35 170.42 261.35 167.97 C 265.35 165.52 265.35 173.52 261.35 171.97 C 257.35 170.42 260.11 176 260 180 C 259.89 184 258.5 190.1 262.5 188.65 C 266.5 187.2 266.5 195.2 262.5 192.65 C 258.5 190.1 259.29 196 260 200 M 280,0 C 280.58 4 278.52 9.96 282.52 7.47 C 286.52 4.97 286.52 12.97 282.52 11.47 C 278.52 9.96 280.23 16 280 20 C 279.77 24 282.53 29.63 278.53 27.5 C 274.53 25.37 274.53 33.37 278.53 31.5 C 282.53 29.63 280.47 36 280 40 C 279.53 44 282.43 49.97 278.43 47.89 C 274.43 45.8 274.43 53.8 278.43 51.89 C 282.43 49.97 279.27 56 280 60 C 280.73 64 281.91 70.43 277.91 68.26 C 273.91 66.1 273.91 74.1 277.91 72.26 C 281.91 70.43 279.54 76 280 80 C 280.46 84 278.67 90.43 282.67 88.31 C 286.67 86.19 286.67 94.19 282.67 92.31 C 278.67 90.43 280.22 96 280 100 C 279.78 104 278.79 110.34 282.79 108.54 C 286.79 106.73 286.79 114.73 282.79 112.54 C 278.79 110.34 280.42 116 280 120 C 279.58 124 281.29 128.7 277.29 127.34 C 273.29 125.98 273.29 133.98 277.29 131.34 C 281.29 128.7 280.31 136 280 140 C 279.69 144 282.62 149.36 278.62 147.23 C 274.62 145.11 274.62 153.11 278.62 151.23 C 282.62 149.36 279.65 156 280 160 C 280.35 164 281.92 169.77 277.92 168.53 C 273.92 167.28 273.92 175.28 277.92 172.53 C 281.92 169.77 279.34 176 280 180 C 280.66 184 277.74 189.08 281.74 187.6 C 285.74 186.11 285.74 194.11 281.74 191.6 C 277.74 189.08 280.69 196 280 200 M 300,0 C 300.25 4 298.67 9.9 302.67 7.47 C 306.67 5.04 306.67 13.04 302.67 11.47 C 298.67 9.9 300.68 16 300 20 C 299.32 24 298.45 30.35 302.45 28.51 C 306.45 26.66 306.45 34.66 302.45 32.51 C 298.45 30.35 300.32 36 300 40 C 299.68 44 298.02 49.2 302.02 47.62 C 306.02 46.05 306.02 54.05 302.02 51.62 C 298.02 49.2 299.71 56 300 60 C 300.29 64 297.74 70.59 301.74 68.46 C 305.74 66.34 305.74 74.34 301.74 72.46 C 297.74 70.59 300 76 300 80 C 300 84 302.15 89.71 298.15 87.6 C 294.15 85.49 294.15 93.49 298.15 91.6 C 302.15 89.71 300.45 96 300 100 C 299.55 104 301.67 110.35 297.67 108.53 C 293.67 106.72 293.67 114.72 297.67 112.53 C 301.67 110.35 300.19 116 300 120 C 299.81 124 302.44 129.87 298.44 127.39 C 294.44 124.91 294.44 132.91 298.44 131.39 C 302.44 129.87 300.66 136 300 140 C 299.34 144 302.77 150.05 298.77 148.27 C 294.77 146.49 294.77 154.49 298.77 152.27 C 302.77 150.05 300.76 156 300 160 C 299.24 164 302.3 169.2 298.3 167.82 C 294.3 166.44 294.3 174.44 298.3 171.82 C 302.3 169.2 300.75 176 300 180 C 299.25 184 302.18 189.56 298.18 188.13 C 294.18 186.69 294.18 194.69 298.18 192.13 C 302.18 189.56 299.89 196 300 200 M 320,0 C 320.02 4 321.41 9.77 317.41 7.24 C 313.41 4.71 313.41 12.71 317.41 11.24 C 321.41 9.77 320.4 16 320 20 C 319.6 24 318.79 29.9 322.79 28.7 C 326.79 27.5 326.79 35.5 322.79 32.7 C 318.79 29.9 320.11 36 320 40 C 319.89 44 318.3 50 322.3 47.4 C 326.3 44.81 326.3 52.81 322.3 51.4 C 318.3 50 319.42 56 320 60 C 320.58 64 321.2 69.83 317.2 67.89 C 313.2 65.95 313.2 73.95 317.2 71.89 C 321.2 69.83 320.21 76 320 80 C 319.79 84 317.82 90.86 321.82 88.46 C 325.82 86.07 325.82 94.07 321.82 92.46 C 317.82 90.86 319.3 96 320 100 C 320.7 104 317.32 110.01 321.32 107.8 C 325.32 105.59 325.32 113.59 321.32 111.8 C 317.32 110.01 319.77 116 320 120 C 320.23 124 318.54 129.61 322.54 128.31 C 326.54 127.01 326.54 135.01 322.54 132.31 C 318.54 129.61 320.79 136 320 140 C 319.21 144 318.22 150.04 322.22 147.7 C 326.22 145.35 326.22 153.35 322.22 151.7 C 318.22 150.04 320.07 156 320 160 C 319.93 164 318.26 169.19 322.26 167.54 C 326.26 165.89 326.26 173.89 322.26 171.54 C 318.26 169.19 320.63 176 320 180 C 319.37 184 322.23 190.49 318.23 188.06 C 314.23 185.63 314.23 193.63 318.23 192.06 C 322.23 190.49 320.43 196 320 200 M 340,0 C 339.89 4 338.01 10.15 342.01 8 C 346.01 5.85 346.01 13.85 342.01 12 C 338.01 10.15 340.32 16 340 20 C 339.68 24 341.63 29.29 337.63 27.32 C 333.63 25.36 333.63 33.36 337.63 31.32 C 341.63 29.29 340.34 36 340 40 C 339.66 44 337.72 50.96 341.72 48.23 C 345.72 45.49 345.72 53.49 341.72 52.23 C 337.72 50.96 339.71 56 340 60 C 340.29 64 342.36 70.16 338.36 67.66 C 334.36 65.16 334.36 73.16 338.36 71.66 C 342.36 70.16 340.77 76 340 80 C 339.23 84 342.46 89.25 338.46 87.83 C 334.46 86.41 334.46 94.41 338.46 91.83 C 342.46 89.25 340.16 96 340 100 C 339.84 104 337.74 109.28 341.74 107.71 C 345.74 106.15 345.74 114.15 341.74 111.71 C 337.74 109.28 340.5 116 340 120 C 339.5 124 337.67 129.59 341.67 128.01 C 345.67 126.43 345.67 134.43 341.67 132.01 C 337.67 129.59 339.78 136 340 140 C 340.22 144 337.94 149.96 341.94 147.78 C 345.94 145.6 345.94 153.6 341.94 151.78 C 337.94 149.96 339.46 156 340 160 C 340.54 164 337.43 170.62 341.43 168.69 C 345.43 166.75 345.43 174.75 341.43 172.69 C 337.43 170.62 339.58 176 340 180 C 340.42 184 341.84 190.31 337.84 188.74 C 333.84 187.18 333.84 195.18 337.84 192.74 C 341.84 190.31 340.15 196 340 200 M 360,0 C 360.27 4 357.5 10.51 361.5 8.33 C 365.5 6.15 365.5 14.15 361.5 12.33 C 357.5 10.51 360.3 16 360 20 C 359.7 24 357.26 29.84 361.26 28.43 C 365.26 27.01 365.26 35.01 361.26 32.43 C 357.26 29.84 359.22 36 360 40 C 360.78 44 357.83 49.91 361.83 47.74 C 365.83 45.58 365.83 53.58 361.83 51.74 C 357.83 49.91 360.24 56 360 60 C 359.76 64 357.79 69.78 361.79 67.34 C 365.79 64.89 365.79 72.89 361.79 71.34 C 357.79 69.78 359.44 76 360 80 C 360.56 84 357.82 90.83 361.82 88.23 C 365.82 85.63 365.82 93.63 361.82 92.23 C 357.82 90.83 359.26 96 360 100 C 360.74 104 361.53 111.06 357.53 108.51 C 353.53 105.96 353.53 113.96 357.53 112.51 C 361.53 111.06 360.67 116 360 120 C 359.33 124 357.52 128.83 361.52 127.49 C 365.52 126.15 365.52 134.15 361.52 131.49 C 357.52 128.83 360.04 136 360 140 C 359.96 144 357.48 149.04 361.48 147.29 C 365.48 145.53 365.48 153.53 361.48 151.29 C 357.48 149.04 360.18 156 360 160 C 359.82 164 358.15 169.74 362.15 167.22 C 366.15 164.7 366.15 172.7 362.15 171.22 C 358.15 169.74 359.61 176 360 180 C 360.39 184 357.49 191.35 361.49 188.75 C 365.49 186.14 365.49 194.14 361.49 192.75 C 357.49 191.35 359.21 196 360 200 M 380,0 C 380.59 4 378.25 10.34 382.25 7.84 C 386.25 5.34 386.25 13.34 382.25 11.84 C 378.25 10.34 380.79 16 380 20 C 379.21 24 382.54 29.67 378.54 28.01 C 374.54 26.34 374.54 34.34 378.54 32.01 C 382.54 29.67 379.33 36 380 40 C 380.67 44 381.51 50.46 377.51 48.75 C 373.51 47.05 373.51 55.05 377.51 52.75 C 381.51 50.46 380.47 56 380 60 C 379.53 64 378.2 69.26 382.2 67.63 C 386.2 65.99 386.2 73.99 382.2 71.63 C 378.2 69.26 380.11 76 380 80 C 379.89 84 377.55 90.02 381.55 88.78 C 385.55 87.55 385.55 95.55 381.55 92.78 C 377.55 90.02 379.55 96 380 100 C 380.45 104 382.72 111.38 378.72 108.64 C 374.72 105.89 374.72 113.89 378.72 112.64 C 382.72 111.38 380.26 116 380 120 C 379.74 124 378.53 129.39 382.53 127.39 C 386.53 125.39 386.53 133.39 382.53 131.39 C 378.53 129.39 380.24 136 380 140 C 379.76 144 381.42 151.34 377.42 148.68 C 373.42 146.02 373.42 154.02 377.42 152.68 C 381.42 151.34 379.29 156 380 160 C 380.71 164 377.63 169.67 381.63 167.59 C 385.63 165.51 385.63 173.51 381.63 171.59 C 377.63 169.67 379.21 176 380 180 C 380.79 184 381.96 190.49 377.96 187.7 C 373.96 184.91 373.96 192.91 377.96 191.7 C 381.96 190.49 379.99 196 380 200 "></path><path fill="none" stroke="Black" stroke-width="0.1" d="M 2 0 L 398 0 A 2 2 0 0 1 400 2 L 400 198 A 2 2 0 0 1 398 200 L 2 200 A 2 2 0 0 1 0 198 L 0 2 A 2 2 0 0 1 2 0 "></path></svg>